<?xml version="1.0" encoding="UTF-8" standalone="no"?>
<!DOCTYPE svg PUBLIC "-//W3C//DTD SVG 1.1//EN" "http://www.w3.org/Graphics/SVG/1.1/DTD/svg11.dtd">
<svg width="100%" height="100%" viewBox="0 0 693 512" version="1.1" xmlns="http://www.w3.org/2000/svg" xmlns:xlink="http://www.w3.org/1999/xlink" xml:space="preserve" xmlns:serif="http://www.serif.com/" style="fill-rule:evenodd;clip-rule:evenodd;stroke-linejoin:round;stroke-miterlimit:10;">
    <g transform="matrix(1,0,0,1,-13,-3166)">
        <g id="Artboard9" transform="matrix(0.980852,0,0,1,13.5088,19.8033)">
            <rect x="0" y="3146.82" width="705.483" height="511.013" style="fill:none;"/>
            <g transform="matrix(1.05346,2.77556e-17,8.48923e-17,1.03329,-1111.55,2726.36)">
                <g transform="matrix(1,0,0,1,1612.05,654.186)">
                    <path d="M0,0C0,126.259 -102.352,228.609 -228.609,228.609C-354.867,228.609 -457.219,126.259 -457.219,0C-457.219,-126.257 -354.867,-228.609 -228.609,-228.609C-102.352,-228.609 0,-126.257 0,0" style="fill-rule:nonzero;"/>
                </g>
                <g transform="matrix(0.998315,-0.0580332,0.0580332,0.998315,958.231,357.516)">
                    <g transform="matrix(18,0,0,18,401.963,525.462)">
                        <path d="M0.382,-0.564L0.382,0L0.226,0L0.226,-0.564L0.028,-0.564L0.028,-0.699L0.58,-0.699L0.58,-0.564L0.382,-0.564Z" style="fill:white;fill-rule:nonzero;"/>
                    </g>
                </g>
                <g transform="matrix(0.992627,-0.121211,0.121211,0.992627,958.231,357.516)">
                    <g transform="matrix(18,0,0,18,379.298,550.652)">
                        <path d="M0.52,-0.699L0.676,-0.699L0.676,0L0.52,0L0.52,-0.275L0.242,-0.275L0.242,0L0.086,0L0.086,-0.699L0.242,-0.699L0.242,-0.407L0.52,-0.407L0.52,-0.699Z" style="fill:white;fill-rule:nonzero;"/>
                    </g>
                </g>
                <g transform="matrix(0.982321,-0.187205,0.187205,0.982321,958.231,357.516)">
                    <g transform="matrix(18,0,0,18,356.317,575.673)">
                        <path d="M0.59,-0.699L0.59,-0.56L0.242,-0.56L0.242,-0.416L0.555,-0.416L0.555,-0.283L0.242,-0.283L0.242,-0.138L0.601,-0.138L0.601,0L0.086,0L0.086,-0.699L0.59,-0.699Z" style="fill:white;fill-rule:nonzero;"/>
                    </g>
                </g>
                <g transform="matrix(0.962801,-0.270211,0.270211,0.962801,958.231,357.516)">
                    <g transform="matrix(18,0,0,18,322.903,605.192)">
                        <path d="M0.392,0L0.086,0L0.086,-0.699L0.358,-0.699C0.405,-0.699 0.446,-0.693 0.481,-0.682C0.515,-0.671 0.541,-0.655 0.558,-0.636C0.589,-0.6 0.605,-0.559 0.605,-0.514C0.605,-0.459 0.587,-0.419 0.552,-0.392C0.54,-0.383 0.532,-0.377 0.527,-0.375C0.522,-0.372 0.514,-0.368 0.502,-0.363C0.545,-0.354 0.58,-0.334 0.606,-0.305C0.631,-0.275 0.644,-0.238 0.644,-0.194C0.644,-0.145 0.627,-0.102 0.594,-0.065C0.555,-0.022 0.488,0 0.392,0ZM0.242,-0.416L0.316,-0.416C0.359,-0.416 0.392,-0.421 0.413,-0.43C0.434,-0.439 0.444,-0.46 0.444,-0.491C0.444,-0.522 0.434,-0.542 0.415,-0.552C0.396,-0.562 0.363,-0.567 0.317,-0.567L0.242,-0.567L0.242,-0.416ZM0.242,-0.132L0.349,-0.132C0.394,-0.132 0.427,-0.137 0.45,-0.149C0.472,-0.16 0.483,-0.181 0.483,-0.214C0.483,-0.246 0.471,-0.267 0.448,-0.278C0.424,-0.288 0.386,-0.293 0.334,-0.293L0.242,-0.293L0.242,-0.132Z" style="fill:white;fill-rule:nonzero;"/>
                    </g>
                </g>
                <g transform="matrix(0.945299,-0.326205,0.326205,0.945299,958.231,357.516)">
                    <g transform="matrix(18,0,0,18,300.146,623.812)">
                        <path d="M0.086,0L0.086,-0.699L0.242,-0.699L0.242,-0.139L0.54,-0.139L0.54,0L0.086,0Z" style="fill:white;fill-rule:nonzero;"/>
                    </g>
                </g>
                <g transform="matrix(0.923781,-0.382921,0.382921,0.923781,958.231,357.516)">
                    <g transform="matrix(18,0,0,18,272.296,641.543)">
                        <path d="M0.271,-0.18C0.297,-0.148 0.332,-0.132 0.376,-0.132C0.42,-0.132 0.455,-0.148 0.481,-0.181C0.506,-0.213 0.519,-0.257 0.519,-0.313L0.519,-0.699L0.675,-0.699L0.675,-0.308C0.675,-0.207 0.647,-0.129 0.591,-0.075C0.535,-0.02 0.463,0.007 0.376,0.007C0.289,0.007 0.217,-0.02 0.161,-0.075C0.104,-0.13 0.076,-0.207 0.076,-0.308L0.076,-0.699L0.232,-0.699L0.232,-0.313C0.232,-0.257 0.245,-0.213 0.271,-0.18Z" style="fill:white;fill-rule:nonzero;"/>
                    </g>
                </g>
                <g transform="matrix(0.896621,-0.442799,0.442799,0.896621,958.231,357.516)">
                    <g transform="matrix(18,0,0,18,243.667,658.938)">
                        <path d="M0.59,-0.699L0.59,-0.56L0.242,-0.56L0.242,-0.416L0.555,-0.416L0.555,-0.283L0.242,-0.283L0.242,-0.138L0.601,-0.138L0.601,0L0.086,0L0.086,-0.699L0.59,-0.699Z" style="fill:white;fill-rule:nonzero;"/>
                    </g>
                </g>
                <g transform="matrix(0.855098,-0.518466,0.518466,0.855098,958.231,357.516)">
                    <g transform="matrix(18,0,0,18,202.865,678.777)">
                        <path d="M0.086,-0.699L0.242,-0.699L0.242,-0.412L0.506,-0.699L0.699,-0.699L0.421,-0.39C0.445,-0.357 0.489,-0.295 0.554,-0.204C0.619,-0.113 0.667,-0.045 0.699,0L0.517,0L0.312,-0.276L0.242,-0.198L0.242,0L0.086,0L0.086,-0.699Z" style="fill:white;fill-rule:nonzero;"/>
                    </g>
                </g>
                <g transform="matrix(0.828936,-0.559343,0.559343,0.828936,958.231,357.516)">
                    <g transform="matrix(18.0001,0,0,18.0001,183.482,688.388)">
                        <rect x="0.086" y="-0.699" width="0.156" height="0.699" style="fill:white;fill-rule:nonzero;"/>
                    </g>
                </g>
                <g transform="matrix(0.799812,-0.600251,0.600251,0.799812,958.231,357.516)">
                    <g transform="matrix(18,0,0,18,154.778,697.133)">
                        <path d="M0.575,-0.699L0.731,-0.699L0.731,0L0.575,0L0.242,-0.438L0.242,0L0.086,0L0.086,-0.699L0.232,-0.699L0.575,-0.249L0.575,-0.699Z" style="fill:white;fill-rule:nonzero;"/>
                    </g>
                </g>
                <g transform="matrix(0.756157,-0.65439,0.65439,0.756157,958.231,357.516)">
                    <g transform="matrix(18,0,0,18,120.611,707.195)">
                        <path d="M0.54,-0.356L0.697,-0.356L0.697,-0.108C0.628,-0.031 0.532,0.008 0.409,0.008C0.306,0.008 0.22,-0.026 0.151,-0.094C0.081,-0.162 0.046,-0.248 0.046,-0.352C0.046,-0.455 0.082,-0.542 0.153,-0.611C0.224,-0.68 0.309,-0.715 0.41,-0.715C0.51,-0.715 0.597,-0.682 0.671,-0.616L0.59,-0.499C0.559,-0.526 0.53,-0.545 0.504,-0.556C0.477,-0.566 0.449,-0.571 0.418,-0.571C0.359,-0.571 0.309,-0.551 0.268,-0.511C0.227,-0.47 0.207,-0.417 0.207,-0.351C0.207,-0.285 0.227,-0.232 0.266,-0.193C0.305,-0.153 0.351,-0.133 0.405,-0.133C0.459,-0.133 0.504,-0.143 0.54,-0.164L0.54,-0.356Z" style="fill:white;fill-rule:nonzero;"/>
                    </g>
                </g>
                <g transform="matrix(0.701294,-0.712872,0.712872,0.701294,958.231,357.516)">
                    <g transform="matrix(18,0,0,18,81.6816,715.782)">
                        <path d="M0.086,0L0.086,-0.699L0.242,-0.699L0.242,-0.139L0.54,-0.139L0.54,0L0.086,0Z" style="fill:white;fill-rule:nonzero;"/>
                    </g>
                </g>
                <g transform="matrix(0.660224,-0.751069,0.751069,0.660224,958.231,357.516)">
                    <g transform="matrix(18,0,0,18,51.928,719.842)">
                        <path d="M0.59,-0.699L0.59,-0.56L0.242,-0.56L0.242,-0.416L0.555,-0.416L0.555,-0.283L0.242,-0.283L0.242,-0.138L0.601,-0.138L0.601,0L0.086,0L0.086,-0.699L0.59,-0.699Z" style="fill:white;fill-rule:nonzero;"/>
                    </g>
                </g>
                <g transform="matrix(0.609706,-0.792628,0.792628,0.609706,958.231,357.516)">
                    <g transform="matrix(18,0,0,18,17.3484,722.534)">
                        <path d="M0.333,-0.699C0.458,-0.699 0.553,-0.669 0.62,-0.608C0.687,-0.547 0.72,-0.462 0.72,-0.353C0.72,-0.244 0.688,-0.158 0.623,-0.095C0.558,-0.032 0.458,0 0.325,0L0.086,0L0.086,-0.699L0.333,-0.699ZM0.341,-0.138C0.412,-0.138 0.467,-0.156 0.506,-0.192C0.544,-0.228 0.563,-0.28 0.563,-0.349C0.563,-0.418 0.544,-0.471 0.506,-0.508C0.467,-0.545 0.408,-0.563 0.329,-0.563L0.242,-0.563L0.242,-0.138L0.341,-0.138Z" style="fill:white;fill-rule:nonzero;"/>
                    </g>
                </g>
                <g transform="matrix(0.535039,-0.844828,0.844828,0.535039,958.231,357.516)">
                    <g transform="matrix(18,0,0,18,-29.3991,722.594)">
                        <path d="M0.531,-0.446L0.677,-0.446L0.681,-0.509L0.539,-0.509L0.562,-0.7L0.503,-0.7L0.479,-0.509L0.278,-0.509L0.301,-0.7L0.241,-0.7L0.218,-0.509L0.072,-0.509L0.067,-0.446L0.21,-0.446L0.185,-0.248L0.04,-0.248L0.035,-0.185L0.178,-0.185L0.155,0L0.215,0L0.238,-0.185L0.439,-0.185L0.416,0L0.476,0L0.499,-0.185L0.644,-0.185L0.649,-0.248L0.506,-0.248L0.531,-0.446ZM0.471,-0.446L0.446,-0.248L0.245,-0.248L0.269,-0.446L0.471,-0.446Z" style="fill:white;fill-rule:nonzero;"/>
                    </g>
                </g>
                <g transform="matrix(0.484899,-0.87457,0.87457,0.484899,958.231,357.516)">
                    <g transform="matrix(18,0,0,18,-58.1115,720.377)">
                        <path d="M0.548,-0.623L0.548,-0.7L0.011,-0.7L0.011,-0.623L0.239,-0.623L0.239,0L0.319,0L0.319,-0.623L0.548,-0.623Z" style="fill:white;fill-rule:nonzero;"/>
                    </g>
                </g>
                <g transform="matrix(0.435712,-0.900086,0.900086,0.435712,958.231,357.516)">
                    <g transform="matrix(17.9999,0,0,17.9999,-87.4715,716.643)">
                        <path d="M0.581,-0.623L0.581,-0.7L0.106,-0.7L0.106,0L0.594,0L0.594,-0.076L0.186,-0.076L0.186,-0.316L0.539,-0.316L0.539,-0.393L0.186,-0.393L0.186,-0.623L0.581,-0.623Z" style="fill:white;fill-rule:nonzero;"/>
                    </g>
                </g>
                <g transform="matrix(0.378233,-0.92571,0.92571,0.378233,958.231,357.516)">
                    <g transform="matrix(18,0,0,18,-120.191,710.494)">
                        <path d="M0.549,-0.177L0.627,0L0.714,0L0.401,-0.7L0.318,-0.7L0.004,0L0.089,0L0.167,-0.177L0.549,-0.177ZM0.515,-0.254L0.201,-0.254L0.357,-0.609L0.515,-0.254Z" style="fill:white;fill-rule:nonzero;"/>
                    </g>
                </g>
                <g transform="matrix(0.307423,-0.951573,0.951573,0.307423,958.231,357.516)">
                    <g transform="matrix(18,0,0,18,-159.918,700.485)">
                        <path d="M0.814,0L0.814,-0.7L0.716,-0.7L0.461,-0.196L0.205,-0.7L0.106,-0.7L0.106,0L0.182,0L0.182,-0.577L0.436,-0.074L0.484,-0.074L0.739,-0.577L0.74,0L0.814,0Z" style="fill:white;fill-rule:nonzero;"/>
                    </g>
                </g>
                <g transform="matrix(0.239533,-0.970888,0.970888,0.239533,958.231,357.516)">
                    <g transform="matrix(18,0,0,18,-191.841,688.549)">
                        <path d="M0.314,-0.703C0.169,-0.703 0.072,-0.632 0.072,-0.522C0.072,-0.271 0.466,-0.369 0.465,-0.185C0.465,-0.118 0.402,-0.077 0.301,-0.077C0.222,-0.077 0.133,-0.113 0.068,-0.176L0.032,-0.104C0.098,-0.041 0.198,0.003 0.3,0.003C0.45,0.003 0.553,-0.072 0.553,-0.189C0.554,-0.443 0.16,-0.349 0.16,-0.529C0.16,-0.588 0.219,-0.622 0.309,-0.622C0.365,-0.622 0.439,-0.605 0.502,-0.563L0.536,-0.638C0.478,-0.677 0.395,-0.703 0.314,-0.703Z" style="fill:white;fill-rule:nonzero;"/>
                    </g>
                </g>
                <g transform="matrix(0.180661,-0.983545,0.983545,0.180661,958.231,357.516)">
                    <g transform="matrix(18,0,0,18,-221.506,676.455)">
                        <path d="M0.405,-0.702C0.202,-0.702 0.04,-0.547 0.04,-0.351C0.04,-0.153 0.2,0.004 0.402,0.004C0.499,0.004 0.593,-0.039 0.662,-0.104L0.613,-0.159C0.558,-0.107 0.483,-0.075 0.406,-0.075C0.248,-0.075 0.121,-0.198 0.121,-0.351C0.121,-0.505 0.248,-0.627 0.406,-0.627C0.483,-0.627 0.559,-0.594 0.613,-0.539L0.661,-0.6C0.594,-0.663 0.501,-0.702 0.405,-0.702Z" style="fill:white;fill-rule:nonzero;"/>
                    </g>
                </g>
                <g transform="matrix(0.113089,-0.993585,0.993585,0.113089,958.231,357.516)">
                    <g transform="matrix(18,0,0,18,-254.082,660.659)">
                        <path d="M0.688,0L0.688,-0.7L0.608,-0.7L0.608,-0.384L0.186,-0.384L0.186,-0.7L0.106,-0.7L0.106,0L0.186,0L0.186,-0.308L0.608,-0.308L0.608,0L0.688,0Z" style="fill:white;fill-rule:nonzero;"/>
                    </g>
                </g>
                <g transform="matrix(0.0478555,-0.998854,0.998854,0.0478555,958.231,357.516)">
                    <g transform="matrix(18,0,0,18,-282.005,643.532)">
                        <path d="M0.581,-0.623L0.581,-0.7L0.106,-0.7L0.106,0L0.594,0L0.594,-0.076L0.186,-0.076L0.186,-0.316L0.539,-0.316L0.539,-0.393L0.186,-0.393L0.186,-0.623L0.581,-0.623Z" style="fill:white;fill-rule:nonzero;"/>
                    </g>
                </g>
                <g transform="matrix(0.0162111,-0.999869,0.999869,0.0162111,958.231,357.516)">
                    <g transform="matrix(18,0,0,18,-290.29,634.56)">
                        <rect x="0.106" y="-0.7" width="0.08" height="0.7" style="fill:white;fill-rule:nonzero;"/>
                    </g>
                </g>
                <g transform="matrix(-0.0397666,-0.999209,0.999209,-0.0397666,958.231,357.516)">
                    <g transform="matrix(18,0,0,18,-319.71,617.687)">
                        <path d="M0.564,0L0.655,0L0.491,-0.238C0.592,-0.271 0.648,-0.349 0.648,-0.465C0.648,-0.614 0.547,-0.7 0.372,-0.7L0.106,-0.7L0.106,0L0.186,0L0.186,-0.221L0.372,-0.221C0.388,-0.221 0.404,-0.222 0.419,-0.223L0.564,0ZM0.186,-0.298L0.186,-0.623L0.372,-0.623C0.499,-0.623 0.571,-0.569 0.571,-0.463C0.571,-0.354 0.499,-0.298 0.372,-0.298L0.186,-0.298Z" style="fill:white;fill-rule:nonzero;"/>
                    </g>
                </g>
                <g transform="matrix(-0.101828,-0.994802,0.994802,-0.101828,958.231,357.516)">
                    <g transform="matrix(18,0,0,18,-344.039,597.415)">
                        <path d="M0.581,-0.623L0.581,-0.7L0.106,-0.7L0.106,0L0.594,0L0.594,-0.076L0.186,-0.076L0.186,-0.316L0.539,-0.316L0.539,-0.393L0.186,-0.393L0.186,-0.623L0.581,-0.623Z" style="fill:white;fill-rule:nonzero;"/>
                    </g>
                </g>
                <g transform="matrix(0.883801,0.467862,0.467862,-0.883801,1443.53,678.383)">
                    <path d="M3.785,-0.94C5.836,4.173 6.21,9.049 4.532,13.325L3.785,15.238C2.957,12.783 1.801,10.294 0.357,7.802L3.785,-0.94Z" style="fill:rgb(0,160,198);fill-rule:nonzero;"/>
                </g>
                <g transform="matrix(1,0,0,1,1383.39,664.873)">
                    <path d="M0,17.044C-30.773,13.546 -55.548,1.322 -65.403,-13.575L-65.626,-11.609C-67.624,5.973 -38.172,24.366 -1.31,28.557C16.863,30.619 34.048,28.915 47.051,24.552L48.283,13.708C39.083,16.453 28.229,17.982 16.299,17.982C10.948,17.982 5.465,17.666 0,17.044" style="fill:rgb(0,160,198);fill-rule:nonzero;"/>
                </g>
                <g transform="matrix(1,0,0,1,1446.3,663.603)">
                    <path d="M0,-31.736L-2.019,-13.97C-3.323,-2.517 -24.145,1.56 -43.195,1.56C-48.918,1.56 -54.873,1.216 -60.892,0.531C-75.474,-1.127 -89.007,-4.598 -99.002,-9.241C-110.188,-14.44 -115.722,-20.516 -115.006,-26.815L-112.976,-44.674C-120.855,-40.305 -125.783,-34.605 -126.52,-28.122C-128.518,-10.543 -99.063,7.853 -62.202,12.04C-56.974,12.637 -51.729,12.938 -46.615,12.938C-15.792,12.938 7.807,2.172 9.492,-12.661C10.229,-19.163 6.652,-25.772 0,-31.736" style="fill:rgb(0,160,198);fill-rule:nonzero;"/>
                </g>
                <g transform="matrix(1,0,0,1,1368.17,700.722)">
                    <path d="M0,82.473L-1.256,78.779C-8.197,58.36 -10.482,29.431 -7.913,-4.965C-10.031,-5.53 -12.097,-6.141 -14.113,-6.793C-16.796,27.526 -14.886,55.725 -8.42,77.117C-29.344,79.678 -50.456,82.953 -50.68,82.991C-52.403,83.257 -53.582,84.872 -53.314,86.595C-53.071,88.154 -51.728,89.266 -50.199,89.266C-50.037,89.266 -49.874,89.254 -49.709,89.23C-49.474,89.194 -25.849,85.526 -3.877,82.93L0,82.473Z" style="fill:white;fill-rule:nonzero;"/>
                </g>
                <g transform="matrix(1,0,0,1,1406.37,796.78)">
                    <path d="M0,-76.662C0.577,-83.811 1.309,-90.524 2.073,-96.548C-0.025,-96.378 -2.162,-96.258 -4.336,-96.192C-5.057,-90.402 -5.74,-84.017 -6.287,-77.253C-9.097,-42.443 -7.209,-13.881 -0.675,7.735C-21.597,10.297 -42.708,13.573 -42.934,13.609C-44.656,13.879 -45.835,15.491 -45.568,17.215C-45.324,18.773 -43.98,19.886 -42.452,19.886C-42.291,19.886 -42.127,19.873 -41.962,19.85C-41.727,19.813 -18.101,16.146 3.871,13.55L7.746,13.092L6.491,9.398C-0.606,-11.48 -2.853,-41.24 0,-76.662" style="fill:white;fill-rule:nonzero;"/>
                </g>
                <g transform="matrix(1,0,0,1,1457.52,498.226)">
                    <path d="M0,-8.059L-15.091,2.467L-24.721,-12.451L-39.357,-0.901L-48.095,-19.944L-63.13,-4.2L-72.725,-22.795L-92.35,-8.255L-99.918,-26.468L-108.006,-15.476L-104.248,4.733L-73.576,12.517L-58.501,-8.414L-53.116,-9.664L-48.303,-7.539L-40.866,-1.039L-42.491,11.086L-47.222,16.481L-5.692,18.409L4.225,5.147L0,-8.059Z" style="fill:rgb(244,180,0);fill-rule:nonzero;stroke:rgb(244,180,0);stroke-width:2.9px;"/>
                </g>
                <g transform="matrix(1,0,0,1,1442.33,597.294)">
                    <path d="M0,-49.846L-11.489,51.209C-20.146,56.72 -29.877,55.614 -29.877,55.614L-17.658,-51.854C-14.857,-76.5 -30.468,-98.946 -53.532,-105.588C-50.766,-105.738 -47.964,-105.715 -45.119,-105.392L-44.616,-105.335L-44.114,-105.278C-16.626,-102.154 3.126,-77.335 0,-49.846M-43.38,-24.876C-50.742,-25.714 -55.94,-33.172 -54.99,-41.534C-54.041,-49.898 -47.3,-55.998 -39.936,-55.16C-32.573,-54.324 -27.375,-46.865 -28.325,-38.503C-29.275,-30.14 -36.016,-24.039 -43.38,-24.876M-67.016,-42.902C-67.966,-34.538 -74.004,-28.359 -80.502,-29.097C-87,-29.835 -91.496,-37.214 -90.544,-45.576C-89.594,-53.94 -83.557,-60.119 -77.059,-59.381C-70.562,-58.643 -66.065,-51.265 -67.016,-42.902M-36.165,-110.956L-37.232,-111.077C-39.128,-111.293 -41.052,-111.402 -42.947,-111.402C-68.36,-111.402 -89.691,-92.33 -92.567,-67.039L-104.759,40.207C-105.04,42.675 -101.933,46.897 -92.368,51.339C-82.973,55.705 -70.129,58.981 -56.206,60.565C-50.422,61.222 -44.708,61.556 -39.221,61.556C-18.082,61.556 -4.875,56.505 -4.319,51.625L7.872,-55.621C10.985,-83.018 -8.769,-107.842 -36.165,-110.956" style="fill:rgb(0,160,198);fill-rule:nonzero;"/>
                </g>
                <g transform="matrix(1,0,0,1,1454.25,491.196)">
                    <path d="M0,14.163C-2.93,7.91 -4.528,4.686 -7.965,-1.982C-14.865,4.912 -18.187,8.311 -24.584,15.049C-28.007,8.084 -29.84,4.492 -33.716,-2.941C-40.088,3.502 -43.144,6.691 -49.014,13.038C-52.851,5.311 -54.879,1.326 -59.114,-6.917C-64.931,-0.862 -67.712,2.146 -73.032,8.163C-77.203,-0.37 -79.377,-4.768 -83.884,-13.865C-89.128,-8.137 -91.627,-5.278 -96.383,0.464C-100.799,-8.918 -103.083,-13.754 -107.77,-23.744C-107.743,-9.714 -107.71,4.315 -107.68,18.345C-70.462,33.407 -34.213,37.907 5.552,32.342C9.606,20.257 13.658,8.17 17.708,-3.917C10.378,3.425 6.838,7.034 0,14.163Z" style="fill:rgb(255,230,16);fill-rule:nonzero;stroke:rgb(255,230,16);stroke-width:1.94px;stroke-linecap:round;"/>
                </g>
            </g>
        </g>
    </g>
</svg>
