<?xml version="1.0" encoding="UTF-8" standalone="no"?>
<!DOCTYPE svg PUBLIC "-//W3C//DTD SVG 1.1//EN" "http://www.w3.org/Graphics/SVG/1.1/DTD/svg11.dtd">
<svg width="100%" height="100%" viewBox="0 0 706 404" version="1.1" xmlns="http://www.w3.org/2000/svg" xmlns:xlink="http://www.w3.org/1999/xlink" xml:space="preserve" xmlns:serif="http://www.serif.com/" style="fill-rule:evenodd;clip-rule:evenodd;stroke-linejoin:round;stroke-miterlimit:2;">
    <g transform="matrix(1,0,0,1,0,-2048)">
        <g id="Artboard6" transform="matrix(1,0,0,1,11.7334,-0.628161)">
            <rect x="-11.733" y="2048.63" width="705.216" height="403.597" style="fill:none;"/>
            <clipPath id="_clip1">
                <rect x="-11.733" y="2048.63" width="705.216" height="403.597"/>
            </clipPath>
            <g clip-path="url(#_clip1)">
                <g transform="matrix(0.558934,-1.73472e-17,2.77556e-16,0.558934,-150.285,1761.91)">
                    <g transform="matrix(0.3756,0,0,0.3756,743.641,333.822)">
                        <circle cx="1337.32" cy="1438.22" r="703.253" style="fill:rgb(239,71,127);"/>
                    </g>
                    <g transform="matrix(0.0967827,0,0,0.0967827,966.743,645.255)">
                        <g transform="matrix(647.147,0,0,647.147,1002.87,1593.25)">
                            <rect x="0.057" y="-0.745" width="0.487" height="0.072" style="fill:white;fill-rule:nonzero;"/>
                        </g>
                        <g transform="matrix(647.147,0,0,647.147,1392.48,1593.25)">
                            <path d="M0.143,-0.729L0.527,0.093L0.434,0.093L0.05,-0.729L0.143,-0.729Z" style="fill:white;fill-rule:nonzero;"/>
                        </g>
                        <g transform="matrix(647.147,0,0,647.147,1782.1,1593.25)">
                            <rect x="0" y="0.093" width="0.598" height="0.083" style="fill:white;fill-rule:nonzero;"/>
                        </g>
                        <g transform="matrix(647.147,0,0,647.147,2171.71,1593.25)">
                            <path d="M0.417,-0.808C0.374,-0.733 0.342,-0.659 0.321,-0.586C0.299,-0.512 0.289,-0.438 0.289,-0.363C0.289,-0.288 0.299,-0.214 0.321,-0.14C0.342,-0.066 0.374,0.008 0.417,0.083L0.339,0.083C0.29,0.006 0.254,-0.07 0.229,-0.143C0.205,-0.217 0.193,-0.29 0.193,-0.363C0.193,-0.435 0.205,-0.508 0.229,-0.582C0.254,-0.656 0.29,-0.731 0.339,-0.808L0.417,-0.808Z" style="fill:white;fill-rule:nonzero;"/>
                        </g>
                        <g transform="matrix(647.147,0,0,647.147,2561.33,1593.25)">
                            <path d="M0.815,-0.797C0.866,-0.784 0.899,-0.777 0.913,-0.775C0.927,-0.773 0.936,-0.77 0.94,-0.767C0.943,-0.763 0.944,-0.754 0.941,-0.741C0.938,-0.727 0.936,-0.711 0.935,-0.692C0.917,-0.444 0.856,-0.266 0.752,-0.158C0.648,-0.05 0.492,0.028 0.283,0.075L0.211,-0.023C0.365,-0.063 0.483,-0.111 0.566,-0.166C0.648,-0.221 0.708,-0.29 0.746,-0.373C0.784,-0.456 0.807,-0.598 0.815,-0.797ZM0.595,-0.444L0.474,-0.435C0.459,-0.554 0.439,-0.669 0.415,-0.78L0.537,-0.789C0.563,-0.679 0.582,-0.564 0.595,-0.444ZM0.33,-0.41L0.209,-0.368C0.171,-0.465 0.115,-0.58 0.041,-0.713L0.151,-0.76C0.229,-0.635 0.289,-0.518 0.33,-0.41Z" style="fill:white;fill-rule:nonzero;"/>
                        </g>
                        <g transform="matrix(647.147,0,0,647.147,3208.48,1593.25)">
                            <path d="M0.17,-0.808L0.248,-0.808C0.297,-0.731 0.334,-0.656 0.358,-0.582C0.382,-0.508 0.394,-0.435 0.394,-0.363C0.394,-0.29 0.382,-0.216 0.358,-0.143C0.334,-0.069 0.297,0.006 0.248,0.083L0.17,0.083C0.213,0.007 0.246,-0.067 0.267,-0.141C0.288,-0.215 0.299,-0.289 0.299,-0.363C0.299,-0.437 0.288,-0.511 0.267,-0.585C0.246,-0.659 0.213,-0.733 0.17,-0.808Z" style="fill:white;fill-rule:nonzero;"/>
                        </g>
                        <g transform="matrix(647.147,0,0,647.147,3598.09,1593.25)">
                            <rect x="0" y="0.093" width="0.598" height="0.083" style="fill:white;fill-rule:nonzero;"/>
                        </g>
                        <g transform="matrix(647.147,0,0,647.147,3987.71,1593.25)">
                            <path d="M0.434,-0.729L0.527,-0.729L0.143,0.093L0.05,0.093L0.434,-0.729Z" style="fill:white;fill-rule:nonzero;"/>
                        </g>
                        <g transform="matrix(647.147,0,0,647.147,4377.32,1593.25)">
                            <rect x="0.057" y="-0.745" width="0.487" height="0.072" style="fill:white;fill-rule:nonzero;"/>
                        </g>
                    </g>
                    <g transform="matrix(0.508551,0,0,0.157201,622.116,619.725)">
                        <g transform="matrix(0.53474,0,0,1.7299,369.635,-1090.16)">
                            <path d="M1108.46,1707.66C1103.19,1712.55 1097.25,1716.24 1090.64,1718.75C1084.03,1721.26 1076.88,1722.51 1069.2,1722.51C1050.71,1722.51 1036.33,1715.88 1026.04,1702.63C1015.75,1689.39 1010.61,1670.82 1010.61,1646.92C1010.61,1623.09 1015.82,1604.52 1026.23,1591.21C1036.65,1577.9 1051.14,1571.24 1069.69,1571.24C1075.81,1571.24 1081.67,1572.1 1087.27,1573.83C1092.87,1575.55 1098.27,1578.17 1103.48,1581.69L1103.48,1601.9C1098.21,1596.89 1092.8,1593.19 1087.27,1590.82C1081.74,1588.44 1075.88,1587.25 1069.69,1587.25C1056.87,1587.25 1047.25,1592.22 1040.83,1602.15C1034.42,1612.08 1031.21,1627 1031.21,1646.92C1031.21,1667.17 1034.32,1682.16 1040.54,1691.89C1046.76,1701.63 1056.31,1706.49 1069.2,1706.49C1073.57,1706.49 1077.39,1705.99 1080.68,1704.98C1083.96,1703.97 1086.94,1702.39 1089.61,1700.24L1089.61,1661.08L1068.42,1661.08L1068.42,1644.87L1108.46,1644.87L1108.46,1707.66Z" style="fill:white;fill-rule:nonzero;"/>
                        </g>
                        <g transform="matrix(0.53474,0,0,1.7299,369.635,-1090.16)">
                            <path d="M1140.3,1573.88L1226.82,1573.88L1226.82,1590.48L1160.02,1590.48L1160.02,1629.74L1223.89,1629.74L1223.89,1646.34L1160.02,1646.34L1160.02,1703.08L1228.68,1703.08L1228.68,1719.68L1140.3,1719.68L1140.3,1573.88Z" style="fill:white;fill-rule:nonzero;"/>
                        </g>
                        <g transform="matrix(0.53474,0,0,1.7299,369.635,-1090.16)">
                            <path d="M1241.47,1573.88L1260.71,1573.88L1274.67,1692.24L1291.27,1613.91L1311.88,1613.91L1328.68,1692.43L1342.64,1573.88L1361.88,1573.88L1340.1,1719.68L1321.45,1719.68L1301.62,1633.06L1281.9,1719.68L1263.25,1719.68L1241.47,1573.88Z" style="fill:white;fill-rule:nonzero;"/>
                        </g>
                        <g transform="matrix(0.53474,0,0,1.7299,369.635,-1090.16)">
                            <path d="M1450.26,1646.92C1450.26,1625.5 1448.06,1610.2 1443.67,1601.02C1439.27,1591.84 1432.06,1587.25 1422.04,1587.25C1412.07,1587.25 1404.9,1591.84 1400.5,1601.02C1396.11,1610.2 1393.91,1625.5 1393.91,1646.92C1393.91,1668.28 1396.11,1683.54 1400.5,1692.72C1404.9,1701.9 1412.07,1706.49 1422.04,1706.49C1432.06,1706.49 1439.27,1701.92 1443.67,1692.77C1448.06,1683.62 1450.26,1668.34 1450.26,1646.92ZM1470.86,1646.92C1470.86,1672.31 1466.84,1691.26 1458.8,1703.76C1450.76,1716.26 1438.51,1722.51 1422.04,1722.51C1405.56,1722.51 1393.32,1716.29 1385.32,1703.86C1377.31,1691.42 1373.31,1672.44 1373.31,1646.92C1373.31,1621.47 1377.33,1602.49 1385.37,1589.99C1393.4,1577.49 1405.63,1571.24 1422.04,1571.24C1438.51,1571.24 1450.76,1577.49 1458.8,1589.99C1466.84,1602.49 1470.86,1621.47 1470.86,1646.92Z" style="fill:white;fill-rule:nonzero;"/>
                        </g>
                        <g transform="matrix(0.53474,0,0,1.7299,369.635,-1090.16)">
                            <path d="M1570.67,1646.92C1570.67,1625.5 1568.47,1610.2 1564.08,1601.02C1559.68,1591.84 1552.47,1587.25 1542.44,1587.25C1532.48,1587.25 1525.31,1591.84 1520.91,1601.02C1516.52,1610.2 1514.32,1625.5 1514.32,1646.92C1514.32,1668.28 1516.52,1683.54 1520.91,1692.72C1525.31,1701.9 1532.48,1706.49 1542.44,1706.49C1552.47,1706.49 1559.68,1701.92 1564.08,1692.77C1568.47,1683.62 1570.67,1668.34 1570.67,1646.92ZM1591.27,1646.92C1591.27,1672.31 1587.25,1691.26 1579.21,1703.76C1571.17,1716.26 1558.92,1722.51 1542.44,1722.51C1525.97,1722.51 1513.73,1716.29 1505.73,1703.86C1497.72,1691.42 1493.71,1672.44 1493.71,1646.92C1493.71,1621.47 1497.74,1602.49 1505.78,1589.99C1513.82,1577.49 1526.04,1571.24 1542.44,1571.24C1558.92,1571.24 1571.17,1577.49 1579.21,1589.99C1587.25,1602.49 1591.27,1621.47 1591.27,1646.92Z" style="fill:white;fill-rule:nonzero;"/>
                        </g>
                        <g transform="matrix(0.53474,0,0,1.7299,369.635,-1090.16)">
                            <path d="M1604.56,1574.36L1631.51,1574.36L1688.54,1693.99L1688.54,1574.36L1709.54,1574.36L1709.54,1719.68L1682.58,1719.68L1625.55,1600.05L1625.55,1719.68L1604.56,1719.68L1604.56,1574.36Z" style="fill:white;fill-rule:nonzero;"/>
                        </g>
                        <g transform="matrix(0.53474,0,0,1.7299,369.635,-1090.16)">
                            <path d="M1847.04,1574.36L1873.4,1574.36L1898.6,1648.39L1923.99,1574.36L1950.45,1574.36L1950.45,1719.68L1932.19,1719.68L1932.19,1591.26L1906.22,1667.82L1891.27,1667.82L1865.2,1591.26L1865.2,1719.68L1847.04,1719.68L1847.04,1574.36Z" style="fill:white;fill-rule:nonzero;"/>
                        </g>
                        <g transform="matrix(0.53474,0,0,1.7299,369.635,-1090.16)">
                            <path d="M1983.17,1573.88L2069.69,1573.88L2069.69,1590.48L2002.89,1590.48L2002.89,1629.74L2066.76,1629.74L2066.76,1646.34L2002.89,1646.34L2002.89,1703.08L2071.55,1703.08L2071.55,1719.68L1983.17,1719.68L1983.17,1573.88Z" style="fill:white;fill-rule:nonzero;"/>
                        </g>
                        <g transform="matrix(0.53474,0,0,1.7299,369.635,-1090.16)">
                            <path d="M2088.93,1573.88L2200.16,1573.88L2200.16,1590.48L2154.55,1590.48L2154.55,1719.68L2134.73,1719.68L2134.73,1590.48L2088.93,1590.48L2088.93,1573.88Z" style="fill:white;fill-rule:nonzero;"/>
                        </g>
                        <g transform="matrix(0.53474,0,0,1.7299,369.635,-1090.16)">
                            <path d="M1241.42,1791.26L1220.62,1865.87L1262.22,1865.87L1241.42,1791.26ZM1229.51,1773.88L1253.43,1773.88L1298.06,1919.68L1277.65,1919.68L1266.91,1881.69L1215.83,1881.69L1205.29,1919.68L1184.88,1919.68L1229.51,1773.88Z" style="fill:white;fill-rule:nonzero;"/>
                        </g>
                        <g transform="matrix(0.53474,0,0,1.7299,369.635,-1090.16)">
                            <path d="M1375.89,1850.83C1380.97,1852.13 1385.3,1854.59 1388.88,1858.2C1392.46,1861.82 1396.92,1869.03 1402.26,1879.83L1422.08,1919.68L1400.89,1919.68L1383.51,1882.86C1378.5,1872.38 1373.99,1865.62 1369.98,1862.6C1365.98,1859.57 1360.76,1858.06 1354.31,1858.06L1335.46,1858.06L1335.46,1919.68L1315.64,1919.68L1315.64,1773.88L1356.26,1773.88C1372.28,1773.88 1384.55,1777.49 1393.08,1784.72C1401.61,1791.94 1405.87,1802.39 1405.87,1816.06C1405.87,1825.7 1403.25,1833.56 1398.01,1839.65C1392.77,1845.73 1385.4,1849.46 1375.89,1850.83ZM1335.46,1790.09L1335.46,1841.84L1357.05,1841.84C1366.49,1841.84 1373.52,1839.73 1378.14,1835.5C1382.76,1831.27 1385.07,1824.79 1385.07,1816.06C1385.07,1807.66 1382.61,1801.24 1377.7,1796.78C1372.78,1792.32 1365.64,1790.09 1356.26,1790.09L1335.46,1790.09Z" style="fill:white;fill-rule:nonzero;"/>
                        </g>
                        <g transform="matrix(0.53474,0,0,1.7299,369.635,-1090.16)">
                            <path d="M1464.66,1903.47C1481.26,1903.47 1492.85,1899.38 1499.43,1891.21C1506,1883.04 1509.29,1868.28 1509.29,1846.92C1509.29,1825.37 1506.02,1810.51 1499.48,1802.34C1492.93,1794.17 1481.33,1790.09 1464.66,1790.09L1455.29,1790.09L1455.29,1903.47L1464.66,1903.47ZM1465.05,1773.88C1487.32,1773.88 1503.72,1779.8 1514.27,1791.65C1524.82,1803.5 1530.09,1821.92 1530.09,1846.92C1530.09,1871.79 1524.82,1890.13 1514.27,1901.95C1503.72,1913.77 1487.32,1919.68 1465.05,1919.68L1435.46,1919.68L1435.46,1773.88L1465.05,1773.88Z" style="fill:white;fill-rule:nonzero;"/>
                        </g>
                        <g transform="matrix(0.53474,0,0,1.7299,369.635,-1090.16)">
                            <path d="M1556.85,1863.72L1556.85,1773.88L1576.67,1773.88L1576.67,1872.7C1576.67,1879.8 1576.87,1884.86 1577.26,1887.89C1577.65,1890.92 1578.33,1893.24 1579.31,1894.87C1581.39,1898.71 1584.4,1901.61 1588.34,1903.56C1592.28,1905.52 1597.05,1906.49 1602.65,1906.49C1608.31,1906.49 1613.1,1905.52 1617.01,1903.56C1620.91,1901.61 1623.94,1898.71 1626.09,1894.87C1627.06,1893.24 1627.75,1890.93 1628.14,1887.94C1628.53,1884.94 1628.72,1879.93 1628.72,1872.9L1628.72,1773.88L1648.45,1773.88L1648.45,1863.72C1648.45,1878.63 1647.52,1889.22 1645.67,1895.51C1643.81,1901.79 1640.61,1906.98 1636.05,1911.08C1631.75,1914.92 1626.84,1917.79 1621.3,1919.68C1615.77,1921.56 1609.55,1922.51 1602.65,1922.51C1595.81,1922.51 1589.63,1921.56 1584.1,1919.68C1578.56,1917.79 1573.61,1914.92 1569.25,1911.08C1564.76,1907.05 1561.57,1901.82 1559.68,1895.41C1557.79,1889 1556.85,1878.43 1556.85,1863.72Z" style="fill:white;fill-rule:nonzero;"/>
                        </g>
                        <g transform="matrix(0.53474,0,0,1.7299,369.635,-1090.16)">
                            <path d="M1682.53,1773.88L1763.49,1773.88L1763.49,1790.48L1732.92,1790.48L1732.92,1903.08L1763.49,1903.08L1763.49,1919.68L1682.53,1919.68L1682.53,1903.08L1713.1,1903.08L1713.1,1790.48L1682.53,1790.48L1682.53,1773.88Z" style="fill:white;fill-rule:nonzero;"/>
                        </g>
                        <g transform="matrix(0.53474,0,0,1.7299,369.635,-1090.16)">
                            <path d="M1785.17,1774.36L1812.12,1774.36L1869.15,1893.99L1869.15,1774.36L1890.15,1774.36L1890.15,1919.68L1863.2,1919.68L1806.17,1800.05L1806.17,1919.68L1785.17,1919.68L1785.17,1774.36Z" style="fill:white;fill-rule:nonzero;"/>
                        </g>
                        <g transform="matrix(0.53474,0,0,1.7299,369.635,-1090.16)">
                            <path d="M1992.1,1846.92C1992.1,1825.5 1989.91,1810.2 1985.51,1801.02C1981.12,1791.84 1973.91,1787.25 1963.88,1787.25C1953.92,1787.25 1946.74,1791.84 1942.35,1801.02C1937.95,1810.2 1935.76,1825.5 1935.76,1846.92C1935.76,1868.28 1937.95,1883.54 1942.35,1892.72C1946.74,1901.9 1953.92,1906.49 1963.88,1906.49C1973.91,1906.49 1981.12,1901.92 1985.51,1892.77C1989.91,1883.62 1992.1,1868.34 1992.1,1846.92ZM2012.71,1846.92C2012.71,1872.31 2008.69,1891.26 2000.65,1903.76C1992.61,1916.26 1980.35,1922.51 1963.88,1922.51C1947.41,1922.51 1935.17,1916.29 1927.16,1903.86C1919.15,1891.42 1915.15,1872.44 1915.15,1846.92C1915.15,1821.47 1919.17,1802.49 1927.21,1789.99C1935.25,1777.49 1947.47,1771.24 1963.88,1771.24C1980.35,1771.24 1992.61,1777.49 2000.65,1789.99C2008.69,1802.49 2012.71,1821.47 2012.71,1846.92Z" style="fill:white;fill-rule:nonzero;"/>
                        </g>
                    </g>
                    <g transform="matrix(0.896459,0,0,0.896459,438.487,-23.8868)">
                        <g transform="matrix(0.732932,0.680302,-0.680302,0.732932,994.48,-163.933)">
                            <g transform="matrix(49.8941,0,0,49.8941,706.034,1184.65)">
                                <path d="M0.562,-0.422L0.701,-0.422L0.712,-0.533L0.576,-0.533L0.597,-0.7L0.485,-0.7L0.464,-0.533L0.312,-0.533L0.333,-0.7L0.222,-0.7L0.201,-0.533L0.064,-0.533L0.052,-0.422L0.187,-0.422L0.169,-0.271L0.031,-0.271L0.019,-0.16L0.155,-0.16L0.135,0L0.247,0L0.267,-0.16L0.419,-0.16L0.399,0L0.51,0L0.53,-0.16L0.667,-0.16L0.679,-0.271L0.544,-0.271L0.562,-0.422ZM0.451,-0.422L0.432,-0.271L0.28,-0.271L0.299,-0.422L0.451,-0.422Z" style="fill:rgb(126,11,49);fill-rule:nonzero;"/>
                            </g>
                        </g>
                        <g transform="matrix(0.80209,0.597204,-0.597204,0.80209,867.23,-198.49)">
                            <g transform="matrix(49.8941,0,0,49.8941,733.091,1209.21)">
                                <path d="M0.375,-0.143C0.347,-0.13 0.323,-0.123 0.303,-0.123C0.27,-0.122 0.251,-0.14 0.251,-0.185L0.251,-0.407L0.397,-0.407L0.397,-0.514L0.251,-0.514L0.251,-0.662L0.098,-0.662L0.098,-0.514L0.023,-0.514L0.023,-0.408L0.098,-0.408L0.098,-0.159C0.098,-0.048 0.171,0.007 0.267,0.007C0.317,0.007 0.367,-0.007 0.407,-0.03L0.375,-0.143Z" style="fill:rgb(126,11,49);fill-rule:nonzero;"/>
                            </g>
                        </g>
                        <g transform="matrix(0.854898,0.518797,-0.518797,0.854898,742.779,-211.732)">
                            <g transform="matrix(49.8941,0,0,49.8941,749.901,1221.99)">
                                <path d="M0.305,-0.543C0.141,-0.543 0.028,-0.433 0.028,-0.267C0.028,-0.104 0.137,0.006 0.309,0.006C0.406,0.006 0.485,-0.029 0.539,-0.089L0.458,-0.171C0.421,-0.134 0.373,-0.114 0.322,-0.114C0.253,-0.114 0.201,-0.154 0.183,-0.222L0.569,-0.222C0.582,-0.418 0.494,-0.543 0.305,-0.543ZM0.18,-0.313C0.192,-0.384 0.238,-0.43 0.306,-0.43C0.377,-0.43 0.423,-0.384 0.425,-0.313L0.18,-0.313Z" style="fill:rgb(126,11,49);fill-rule:nonzero;"/>
                            </g>
                        </g>
                        <g transform="matrix(0.906316,0.422602,-0.422602,0.906316,595.578,-211.755)">
                            <g transform="matrix(49.8941,0,0,49.8941,775.393,1237.42)">
                                <path d="M0.386,0L0.537,0L0.536,-0.351C0.535,-0.472 0.452,-0.544 0.308,-0.544C0.214,-0.544 0.145,-0.522 0.065,-0.482L0.113,-0.376C0.169,-0.407 0.225,-0.423 0.273,-0.423C0.347,-0.423 0.385,-0.39 0.385,-0.333L0.385,-0.323L0.237,-0.323C0.105,-0.322 0.032,-0.262 0.032,-0.161C0.032,-0.063 0.102,0.007 0.217,0.007C0.292,0.007 0.35,-0.018 0.386,-0.063L0.386,0ZM0.26,-0.103C0.208,-0.103 0.176,-0.13 0.176,-0.171C0.176,-0.214 0.205,-0.232 0.264,-0.232L0.385,-0.232L0.385,-0.184C0.376,-0.138 0.325,-0.103 0.26,-0.103Z" style="fill:rgb(126,11,49);fill-rule:nonzero;"/>
                            </g>
                        </g>
                        <g transform="matrix(0.961515,0.274751,-0.274751,0.961515,374.531,-172.246)">
                            <g transform="matrix(49.8941,0,0,49.8941,802.119,1250.81)">
                                <path d="M0.786,-0.544C0.695,-0.543 0.627,-0.503 0.592,-0.42C0.566,-0.498 0.501,-0.544 0.41,-0.544C0.329,-0.543 0.266,-0.511 0.228,-0.445L0.228,-0.538L0.074,-0.538L0.074,0L0.228,0L0.228,-0.266C0.228,-0.344 0.273,-0.402 0.348,-0.403C0.411,-0.403 0.451,-0.362 0.451,-0.293L0.451,0L0.604,0L0.604,-0.266C0.604,-0.344 0.649,-0.402 0.723,-0.403C0.787,-0.403 0.827,-0.362 0.827,-0.293L0.827,0L0.98,0L0.98,-0.338C0.98,-0.464 0.905,-0.544 0.786,-0.544Z" style="fill:rgb(126,11,49);fill-rule:nonzero;"/>
                            </g>
                        </g>
                        <g transform="matrix(0.990759,0.135633,-0.135633,0.990759,179.333,-103.906)">
                            <g transform="matrix(49.8941,0,0,49.8941,852.21,1264.13)">
                                <path d="M0.256,-0.545C0.139,-0.545 0.044,-0.488 0.044,-0.377C0.044,-0.188 0.323,-0.234 0.323,-0.148C0.323,-0.119 0.294,-0.106 0.255,-0.106C0.196,-0.106 0.124,-0.13 0.068,-0.173L0.018,-0.069C0.079,-0.02 0.164,0.006 0.251,0.006C0.373,0.006 0.47,-0.052 0.47,-0.162C0.471,-0.352 0.187,-0.311 0.187,-0.392C0.187,-0.42 0.213,-0.432 0.249,-0.432C0.294,-0.432 0.354,-0.413 0.413,-0.38L0.466,-0.485C0.406,-0.523 0.33,-0.545 0.256,-0.545Z" style="fill:rgb(126,11,49);fill-rule:nonzero;"/>
                            </g>
                        </g>
                        <g transform="matrix(0.999364,0.0356599,-0.0356599,0.999364,45.7595,-30.4627)">
                            <g transform="matrix(49.8941,0,0,49.8941,876.865,1267.58)">
                                <path d="M0.304,-0.543C0.139,-0.543 0.028,-0.432 0.028,-0.267C0.028,-0.104 0.139,0.006 0.302,0.006C0.412,0.006 0.496,-0.038 0.541,-0.113L0.435,-0.185C0.408,-0.143 0.365,-0.122 0.31,-0.122C0.235,-0.122 0.182,-0.181 0.182,-0.268C0.182,-0.354 0.235,-0.412 0.31,-0.412C0.363,-0.413 0.404,-0.391 0.433,-0.355L0.537,-0.43C0.489,-0.502 0.407,-0.543 0.304,-0.543Z" style="fill:rgb(126,11,49);fill-rule:nonzero;"/>
                            </g>
                        </g>
                        <g transform="matrix(0.99677,-0.0803073,0.0803073,0.99677,-98.9693,76.7816)">
                            <g transform="matrix(49.8941,0,0,49.8941,905.069,1268.78)">
                                <path d="M0.419,-0.544C0.335,-0.543 0.271,-0.51 0.233,-0.443L0.233,-0.742L0.079,-0.742L0.079,0L0.233,0L0.233,-0.265C0.233,-0.344 0.28,-0.402 0.357,-0.403C0.423,-0.403 0.463,-0.361 0.463,-0.293L0.463,0L0.617,0L0.617,-0.338C0.617,-0.464 0.54,-0.544 0.419,-0.544Z" style="fill:rgb(126,11,49);fill-rule:nonzero;"/>
                            </g>
                        </g>
                        <g transform="matrix(0.98055,-0.19627,0.19627,0.98055,-230.222,208.846)">
                            <g transform="matrix(49.8941,0,0,49.8941,938.616,1266)">
                                <path d="M0.305,-0.543C0.141,-0.543 0.028,-0.433 0.028,-0.267C0.028,-0.104 0.137,0.006 0.309,0.006C0.406,0.006 0.485,-0.029 0.539,-0.089L0.458,-0.171C0.421,-0.134 0.373,-0.114 0.322,-0.114C0.253,-0.114 0.201,-0.154 0.183,-0.222L0.569,-0.222C0.582,-0.418 0.494,-0.543 0.305,-0.543ZM0.18,-0.313C0.192,-0.384 0.238,-0.43 0.306,-0.43C0.377,-0.43 0.423,-0.384 0.425,-0.313L0.18,-0.313Z" style="fill:rgb(126,11,49);fill-rule:nonzero;"/>
                            </g>
                        </g>
                        <g transform="matrix(0.960495,-0.278297,0.278297,0.960495,-312.386,319.084)">
                            <g transform="matrix(49.8941,0,0,49.8941,967.72,1259.86)">
                                <path d="M0.151,-0.777C0.102,-0.777 0.068,-0.741 0.068,-0.691C0.068,-0.641 0.102,-0.605 0.151,-0.605C0.2,-0.605 0.234,-0.641 0.234,-0.691C0.234,-0.741 0.2,-0.777 0.151,-0.777ZM0.228,0L0.228,-0.538L0.074,-0.538L0.074,0L0.228,0Z" style="fill:rgb(126,11,49);fill-rule:nonzero;"/>
                            </g>
                        </g>
                        <g transform="matrix(0.937344,-0.348406,0.348406,0.937344,-375.988,420.915)">
                            <g transform="matrix(49.8941,0,0,49.8941,982.276,1255.82)">
                                <path d="M0.228,-0.538L0.074,-0.538L0.074,0L0.228,0L0.228,-0.259C0.228,-0.35 0.296,-0.409 0.406,-0.399L0.406,-0.544C0.326,-0.543 0.265,-0.507 0.228,-0.441L0.228,-0.538Z" style="fill:rgb(126,11,49);fill-rule:nonzero;"/>
                            </g>
                        </g>
                        <g transform="matrix(0.902413,-0.430872,0.430872,0.902413,-440.308,553.554)">
                            <g transform="matrix(49.8941,0,0,49.8941,1001.89,1248.81)">
                                <path d="M0.305,-0.543C0.141,-0.543 0.028,-0.433 0.028,-0.267C0.028,-0.104 0.137,0.006 0.309,0.006C0.406,0.006 0.485,-0.029 0.539,-0.089L0.458,-0.171C0.421,-0.134 0.373,-0.114 0.322,-0.114C0.253,-0.114 0.201,-0.154 0.183,-0.222L0.569,-0.222C0.582,-0.418 0.494,-0.543 0.305,-0.543ZM0.18,-0.313C0.192,-0.384 0.238,-0.43 0.306,-0.43C0.377,-0.43 0.423,-0.384 0.425,-0.313L0.18,-0.313Z" style="fill:rgb(126,11,49);fill-rule:nonzero;"/>
                            </g>
                        </g>
                    </g>
                </g>
                <g transform="matrix(0.625,0,0,0.625,467.266,439.441)">
                    <path d="M-293.532,2899.03L-293.536,2899.03C-294.317,3028.73 -399.862,3133.8 -529.752,3133.8C-660.126,3133.8 -765.973,3027.95 -765.973,2897.58C-765.973,2767.2 -660.126,2661.36 -529.752,2661.36C-529.455,2661.36 -529.159,2661.36 -528.862,2661.36L-528.863,2661.36L-293.532,2661.36L-293.532,2899.03Z" style="fill:rgb(65,253,91);"/>
                    <g>
                        <g transform="matrix(0.0865523,-2.68626e-18,4.29802e-17,0.0865523,-779.433,2693)">
                            <g transform="matrix(647.147,0,0,647.147,1002.87,1593.25)">
                                <rect x="0.057" y="-0.745" width="0.487" height="0.072" style="fill:rgb(17,40,76);fill-rule:nonzero;"/>
                            </g>
                            <g transform="matrix(647.147,0,0,647.147,1392.48,1593.25)">
                                <path d="M0.143,-0.729L0.527,0.093L0.434,0.093L0.05,-0.729L0.143,-0.729Z" style="fill:rgb(17,40,76);fill-rule:nonzero;"/>
                            </g>
                            <g transform="matrix(647.147,0,0,647.147,1782.1,1593.25)">
                                <rect x="0" y="0.093" width="0.598" height="0.083" style="fill:rgb(17,40,76);fill-rule:nonzero;"/>
                            </g>
                            <g transform="matrix(647.147,0,0,647.147,2171.71,1593.25)">
                                <path d="M0.417,-0.808C0.374,-0.733 0.342,-0.659 0.321,-0.586C0.299,-0.512 0.289,-0.438 0.289,-0.363C0.289,-0.288 0.299,-0.214 0.321,-0.14C0.342,-0.066 0.374,0.008 0.417,0.083L0.339,0.083C0.29,0.006 0.254,-0.07 0.229,-0.143C0.205,-0.217 0.193,-0.29 0.193,-0.363C0.193,-0.435 0.205,-0.508 0.229,-0.582C0.254,-0.656 0.29,-0.731 0.339,-0.808L0.417,-0.808Z" style="fill:rgb(17,40,76);fill-rule:nonzero;"/>
                            </g>
                            <g transform="matrix(647.147,0,0,647.147,2561.33,1593.25)">
                                <path d="M0.815,-0.797C0.866,-0.784 0.899,-0.777 0.913,-0.775C0.927,-0.773 0.936,-0.77 0.94,-0.767C0.943,-0.763 0.944,-0.754 0.941,-0.741C0.938,-0.727 0.936,-0.711 0.935,-0.692C0.917,-0.444 0.856,-0.266 0.752,-0.158C0.648,-0.05 0.492,0.028 0.283,0.075L0.211,-0.023C0.365,-0.063 0.483,-0.111 0.566,-0.166C0.648,-0.221 0.708,-0.29 0.746,-0.373C0.784,-0.456 0.807,-0.598 0.815,-0.797ZM0.595,-0.444L0.474,-0.435C0.459,-0.554 0.439,-0.669 0.415,-0.78L0.537,-0.789C0.563,-0.679 0.582,-0.564 0.595,-0.444ZM0.33,-0.41L0.209,-0.368C0.171,-0.465 0.115,-0.58 0.041,-0.713L0.151,-0.76C0.229,-0.635 0.289,-0.518 0.33,-0.41Z" style="fill:rgb(17,40,76);fill-rule:nonzero;"/>
                            </g>
                            <g transform="matrix(647.147,0,0,647.147,3208.48,1593.25)">
                                <path d="M0.17,-0.808L0.248,-0.808C0.297,-0.731 0.334,-0.656 0.358,-0.582C0.382,-0.508 0.394,-0.435 0.394,-0.363C0.394,-0.29 0.382,-0.216 0.358,-0.143C0.334,-0.069 0.297,0.006 0.248,0.083L0.17,0.083C0.213,0.007 0.246,-0.067 0.267,-0.141C0.288,-0.215 0.299,-0.289 0.299,-0.363C0.299,-0.437 0.288,-0.511 0.267,-0.585C0.246,-0.659 0.213,-0.733 0.17,-0.808Z" style="fill:rgb(17,40,76);fill-rule:nonzero;"/>
                            </g>
                            <g transform="matrix(647.147,0,0,647.147,3598.09,1593.25)">
                                <rect x="0" y="0.093" width="0.598" height="0.083" style="fill:rgb(17,40,76);fill-rule:nonzero;"/>
                            </g>
                            <g transform="matrix(647.147,0,0,647.147,3987.71,1593.25)">
                                <path d="M0.434,-0.729L0.527,-0.729L0.143,0.093L0.05,0.093L0.434,-0.729Z" style="fill:rgb(17,40,76);fill-rule:nonzero;"/>
                            </g>
                            <g transform="matrix(647.147,0,0,647.147,4377.32,1593.25)">
                                <rect x="0.057" y="-0.745" width="0.487" height="0.072" style="fill:rgb(17,40,76);fill-rule:nonzero;"/>
                            </g>
                        </g>
                        <g transform="matrix(0.243197,-7.54792e-18,1.20767e-16,0.243197,-919.524,2516.91)">
                            <path d="M1108.46,1707.66C1103.19,1712.55 1097.25,1716.24 1090.64,1718.75C1084.03,1721.26 1076.88,1722.51 1069.2,1722.51C1050.71,1722.51 1036.33,1715.88 1026.04,1702.63C1015.75,1689.39 1010.61,1670.82 1010.61,1646.92C1010.61,1623.09 1015.82,1604.52 1026.23,1591.21C1036.65,1577.9 1051.14,1571.24 1069.69,1571.24C1075.81,1571.24 1081.67,1572.1 1087.27,1573.83C1092.87,1575.55 1098.27,1578.17 1103.48,1581.69L1103.48,1601.9C1098.21,1596.89 1092.8,1593.19 1087.27,1590.82C1081.74,1588.44 1075.88,1587.25 1069.69,1587.25C1056.87,1587.25 1047.25,1592.22 1040.83,1602.15C1034.42,1612.08 1031.21,1627 1031.21,1646.92C1031.21,1667.17 1034.32,1682.16 1040.54,1691.89C1046.76,1701.63 1056.31,1706.49 1069.2,1706.49C1073.57,1706.49 1077.39,1705.99 1080.68,1704.98C1083.96,1703.97 1086.94,1702.39 1089.61,1700.24L1089.61,1661.08L1068.42,1661.08L1068.42,1644.87L1108.46,1644.87L1108.46,1707.66Z" style="fill:rgb(17,40,76);fill-rule:nonzero;"/>
                        </g>
                        <g transform="matrix(0.243197,-7.54792e-18,1.20767e-16,0.243197,-919.524,2516.91)">
                            <path d="M1140.3,1573.88L1226.82,1573.88L1226.82,1590.48L1160.02,1590.48L1160.02,1629.74L1223.89,1629.74L1223.89,1646.34L1160.02,1646.34L1160.02,1703.08L1228.68,1703.08L1228.68,1719.68L1140.3,1719.68L1140.3,1573.88Z" style="fill:rgb(17,40,76);fill-rule:nonzero;"/>
                        </g>
                        <g transform="matrix(0.243197,-7.54792e-18,1.20767e-16,0.243197,-919.524,2516.91)">
                            <path d="M1241.47,1573.88L1260.71,1573.88L1274.67,1692.24L1291.27,1613.91L1311.88,1613.91L1328.68,1692.43L1342.64,1573.88L1361.88,1573.88L1340.1,1719.68L1321.45,1719.68L1301.62,1633.06L1281.9,1719.68L1263.25,1719.68L1241.47,1573.88Z" style="fill:rgb(17,40,76);fill-rule:nonzero;"/>
                        </g>
                        <g transform="matrix(0.243197,-7.54792e-18,1.20767e-16,0.243197,-919.524,2516.91)">
                            <path d="M1450.26,1646.92C1450.26,1625.5 1448.06,1610.2 1443.67,1601.02C1439.27,1591.84 1432.06,1587.25 1422.04,1587.25C1412.07,1587.25 1404.9,1591.84 1400.5,1601.02C1396.11,1610.2 1393.91,1625.5 1393.91,1646.92C1393.91,1668.28 1396.11,1683.54 1400.5,1692.72C1404.9,1701.9 1412.07,1706.49 1422.04,1706.49C1432.06,1706.49 1439.27,1701.92 1443.67,1692.77C1448.06,1683.62 1450.26,1668.34 1450.26,1646.92ZM1470.86,1646.92C1470.86,1672.31 1466.84,1691.26 1458.8,1703.76C1450.76,1716.26 1438.51,1722.51 1422.04,1722.51C1405.56,1722.51 1393.32,1716.29 1385.32,1703.86C1377.31,1691.42 1373.31,1672.44 1373.31,1646.92C1373.31,1621.47 1377.33,1602.49 1385.37,1589.99C1393.4,1577.49 1405.63,1571.24 1422.04,1571.24C1438.51,1571.24 1450.76,1577.49 1458.8,1589.99C1466.84,1602.49 1470.86,1621.47 1470.86,1646.92Z" style="fill:rgb(17,40,76);fill-rule:nonzero;"/>
                        </g>
                        <g transform="matrix(0.243197,-7.54792e-18,1.20767e-16,0.243197,-919.524,2516.91)">
                            <path d="M1570.67,1646.92C1570.67,1625.5 1568.47,1610.2 1564.08,1601.02C1559.68,1591.84 1552.47,1587.25 1542.44,1587.25C1532.48,1587.25 1525.31,1591.84 1520.91,1601.02C1516.52,1610.2 1514.32,1625.5 1514.32,1646.92C1514.32,1668.28 1516.52,1683.54 1520.91,1692.72C1525.31,1701.9 1532.48,1706.49 1542.44,1706.49C1552.47,1706.49 1559.68,1701.92 1564.08,1692.77C1568.47,1683.62 1570.67,1668.34 1570.67,1646.92ZM1591.27,1646.92C1591.27,1672.31 1587.25,1691.26 1579.21,1703.76C1571.17,1716.26 1558.92,1722.51 1542.44,1722.51C1525.97,1722.51 1513.73,1716.29 1505.73,1703.86C1497.72,1691.42 1493.71,1672.44 1493.71,1646.92C1493.71,1621.47 1497.74,1602.49 1505.78,1589.99C1513.82,1577.49 1526.04,1571.24 1542.44,1571.24C1558.92,1571.24 1571.17,1577.49 1579.21,1589.99C1587.25,1602.49 1591.27,1621.47 1591.27,1646.92Z" style="fill:rgb(17,40,76);fill-rule:nonzero;"/>
                        </g>
                        <g transform="matrix(0.243197,-7.54792e-18,1.20767e-16,0.243197,-919.524,2516.91)">
                            <path d="M1604.56,1574.36L1631.51,1574.36L1688.54,1693.99L1688.54,1574.36L1709.54,1574.36L1709.54,1719.68L1682.58,1719.68L1625.55,1600.05L1625.55,1719.68L1604.56,1719.68L1604.56,1574.36Z" style="fill:rgb(17,40,76);fill-rule:nonzero;"/>
                        </g>
                        <g transform="matrix(0.243197,-7.54792e-18,1.20767e-16,0.243197,-919.524,2516.91)">
                            <path d="M1847.04,1574.36L1873.4,1574.36L1898.6,1648.39L1923.99,1574.36L1950.45,1574.36L1950.45,1719.68L1932.19,1719.68L1932.19,1591.26L1906.22,1667.82L1891.27,1667.82L1865.2,1591.26L1865.2,1719.68L1847.04,1719.68L1847.04,1574.36Z" style="fill:rgb(17,40,76);fill-rule:nonzero;"/>
                        </g>
                        <g transform="matrix(0.243197,-7.54792e-18,1.20767e-16,0.243197,-919.524,2516.91)">
                            <path d="M1983.17,1573.88L2069.69,1573.88L2069.69,1590.48L2002.89,1590.48L2002.89,1629.74L2066.76,1629.74L2066.76,1646.34L2002.89,1646.34L2002.89,1703.08L2071.55,1703.08L2071.55,1719.68L1983.17,1719.68L1983.17,1573.88Z" style="fill:rgb(17,40,76);fill-rule:nonzero;"/>
                        </g>
                        <g transform="matrix(0.243197,-7.54792e-18,1.20767e-16,0.243197,-919.524,2516.91)">
                            <path d="M2088.93,1573.88L2200.16,1573.88L2200.16,1590.48L2154.55,1590.48L2154.55,1719.68L2134.73,1719.68L2134.73,1590.48L2088.93,1590.48L2088.93,1573.88Z" style="fill:rgb(17,40,76);fill-rule:nonzero;"/>
                        </g>
                        <g transform="matrix(0.243197,-7.54792e-18,1.20767e-16,0.243197,-919.524,2516.91)">
                            <path d="M1241.42,1791.26L1220.62,1865.87L1262.22,1865.87L1241.42,1791.26ZM1229.51,1773.88L1253.43,1773.88L1298.06,1919.68L1277.65,1919.68L1266.91,1881.69L1215.83,1881.69L1205.29,1919.68L1184.88,1919.68L1229.51,1773.88Z" style="fill:rgb(17,40,76);fill-rule:nonzero;"/>
                        </g>
                        <g transform="matrix(0.243197,-7.54792e-18,1.20767e-16,0.243197,-919.524,2516.91)">
                            <path d="M1375.89,1850.83C1380.97,1852.13 1385.3,1854.59 1388.88,1858.2C1392.46,1861.82 1396.92,1869.03 1402.26,1879.83L1422.08,1919.68L1400.89,1919.68L1383.51,1882.86C1378.5,1872.38 1373.99,1865.62 1369.98,1862.6C1365.98,1859.57 1360.76,1858.06 1354.31,1858.06L1335.46,1858.06L1335.46,1919.68L1315.64,1919.68L1315.64,1773.88L1356.26,1773.88C1372.28,1773.88 1384.55,1777.49 1393.08,1784.72C1401.61,1791.94 1405.87,1802.39 1405.87,1816.06C1405.87,1825.7 1403.25,1833.56 1398.01,1839.65C1392.77,1845.73 1385.4,1849.46 1375.89,1850.83ZM1335.46,1790.09L1335.46,1841.84L1357.05,1841.84C1366.49,1841.84 1373.52,1839.73 1378.14,1835.5C1382.76,1831.27 1385.07,1824.79 1385.07,1816.06C1385.07,1807.66 1382.61,1801.24 1377.7,1796.78C1372.78,1792.32 1365.64,1790.09 1356.26,1790.09L1335.46,1790.09Z" style="fill:rgb(17,40,76);fill-rule:nonzero;"/>
                        </g>
                        <g transform="matrix(0.243197,-7.54792e-18,1.20767e-16,0.243197,-919.524,2516.91)">
                            <path d="M1464.66,1903.47C1481.26,1903.47 1492.85,1899.38 1499.43,1891.21C1506,1883.04 1509.29,1868.28 1509.29,1846.92C1509.29,1825.37 1506.02,1810.51 1499.48,1802.34C1492.93,1794.17 1481.33,1790.09 1464.66,1790.09L1455.29,1790.09L1455.29,1903.47L1464.66,1903.47ZM1465.05,1773.88C1487.32,1773.88 1503.72,1779.8 1514.27,1791.65C1524.82,1803.5 1530.09,1821.92 1530.09,1846.92C1530.09,1871.79 1524.82,1890.13 1514.27,1901.95C1503.72,1913.77 1487.32,1919.68 1465.05,1919.68L1435.46,1919.68L1435.46,1773.88L1465.05,1773.88Z" style="fill:rgb(17,40,76);fill-rule:nonzero;"/>
                        </g>
                        <g transform="matrix(0.243197,-7.54792e-18,1.20767e-16,0.243197,-919.524,2516.91)">
                            <path d="M1556.85,1863.72L1556.85,1773.88L1576.67,1773.88L1576.67,1872.7C1576.67,1879.8 1576.87,1884.86 1577.26,1887.89C1577.65,1890.92 1578.33,1893.24 1579.31,1894.87C1581.39,1898.71 1584.4,1901.61 1588.34,1903.56C1592.28,1905.52 1597.05,1906.49 1602.65,1906.49C1608.31,1906.49 1613.1,1905.52 1617.01,1903.56C1620.91,1901.61 1623.94,1898.71 1626.09,1894.87C1627.06,1893.24 1627.75,1890.93 1628.14,1887.94C1628.53,1884.94 1628.72,1879.93 1628.72,1872.9L1628.72,1773.88L1648.45,1773.88L1648.45,1863.72C1648.45,1878.63 1647.52,1889.22 1645.67,1895.51C1643.81,1901.79 1640.61,1906.98 1636.05,1911.08C1631.75,1914.92 1626.84,1917.79 1621.3,1919.68C1615.77,1921.56 1609.55,1922.51 1602.65,1922.51C1595.81,1922.51 1589.63,1921.56 1584.1,1919.68C1578.56,1917.79 1573.61,1914.92 1569.25,1911.08C1564.76,1907.05 1561.57,1901.82 1559.68,1895.41C1557.79,1889 1556.85,1878.43 1556.85,1863.72Z" style="fill:rgb(17,40,76);fill-rule:nonzero;"/>
                        </g>
                        <g transform="matrix(0.243197,-7.54792e-18,1.20767e-16,0.243197,-919.524,2516.91)">
                            <path d="M1682.53,1773.88L1763.49,1773.88L1763.49,1790.48L1732.92,1790.48L1732.92,1903.08L1763.49,1903.08L1763.49,1919.68L1682.53,1919.68L1682.53,1903.08L1713.1,1903.08L1713.1,1790.48L1682.53,1790.48L1682.53,1773.88Z" style="fill:rgb(17,40,76);fill-rule:nonzero;"/>
                        </g>
                        <g transform="matrix(0.243197,-7.54792e-18,1.20767e-16,0.243197,-919.524,2516.91)">
                            <path d="M1785.17,1774.36L1812.12,1774.36L1869.15,1893.99L1869.15,1774.36L1890.15,1774.36L1890.15,1919.68L1863.2,1919.68L1806.17,1800.05L1806.17,1919.68L1785.17,1919.68L1785.17,1774.36Z" style="fill:rgb(17,40,76);fill-rule:nonzero;"/>
                        </g>
                        <g transform="matrix(0.243197,-7.54792e-18,1.20767e-16,0.243197,-919.524,2516.91)">
                            <path d="M1992.1,1846.92C1992.1,1825.5 1989.91,1810.2 1985.51,1801.02C1981.12,1791.84 1973.91,1787.25 1963.88,1787.25C1953.92,1787.25 1946.74,1791.84 1942.35,1801.02C1937.95,1810.2 1935.76,1825.5 1935.76,1846.92C1935.76,1868.28 1937.95,1883.54 1942.35,1892.72C1946.74,1901.9 1953.92,1906.49 1963.88,1906.49C1973.91,1906.49 1981.12,1901.92 1985.51,1892.77C1989.91,1883.62 1992.1,1868.34 1992.1,1846.92ZM2012.71,1846.92C2012.71,1872.31 2008.69,1891.26 2000.65,1903.76C1992.61,1916.26 1980.35,1922.51 1963.88,1922.51C1947.41,1922.51 1935.17,1916.29 1927.16,1903.86C1919.15,1891.42 1915.15,1872.44 1915.15,1846.92C1915.15,1821.47 1919.17,1802.49 1927.21,1789.99C1935.25,1777.49 1947.47,1771.24 1963.88,1771.24C1980.35,1771.24 1992.61,1777.49 2000.65,1789.99C2008.69,1802.49 2012.71,1821.47 2012.71,1846.92Z" style="fill:rgb(17,40,76);fill-rule:nonzero;"/>
                        </g>
                        <g transform="matrix(0.801698,-2.48817e-17,3.98108e-16,0.801698,-1251.85,2094.59)">
                            <g transform="matrix(0.732932,0.680302,-0.680302,0.732932,994.48,-163.933)">
                                <g transform="matrix(49.8941,0,0,49.8941,706.034,1184.65)">
                                    <path d="M0.562,-0.422L0.701,-0.422L0.712,-0.533L0.576,-0.533L0.597,-0.7L0.485,-0.7L0.464,-0.533L0.312,-0.533L0.333,-0.7L0.222,-0.7L0.201,-0.533L0.064,-0.533L0.052,-0.422L0.187,-0.422L0.169,-0.271L0.031,-0.271L0.019,-0.16L0.155,-0.16L0.135,0L0.247,0L0.267,-0.16L0.419,-0.16L0.399,0L0.51,0L0.53,-0.16L0.667,-0.16L0.679,-0.271L0.544,-0.271L0.562,-0.422ZM0.451,-0.422L0.432,-0.271L0.28,-0.271L0.299,-0.422L0.451,-0.422Z" style="fill:rgb(17,40,76);fill-rule:nonzero;"/>
                                </g>
                            </g>
                            <g transform="matrix(0.80209,0.597204,-0.597204,0.80209,867.23,-198.49)">
                                <g transform="matrix(49.8941,0,0,49.8941,733.091,1209.21)">
                                    <path d="M0.375,-0.143C0.347,-0.13 0.323,-0.123 0.303,-0.123C0.27,-0.122 0.251,-0.14 0.251,-0.185L0.251,-0.407L0.397,-0.407L0.397,-0.514L0.251,-0.514L0.251,-0.662L0.098,-0.662L0.098,-0.514L0.023,-0.514L0.023,-0.408L0.098,-0.408L0.098,-0.159C0.098,-0.048 0.171,0.007 0.267,0.007C0.317,0.007 0.367,-0.007 0.407,-0.03L0.375,-0.143Z" style="fill:rgb(17,40,76);fill-rule:nonzero;"/>
                                </g>
                            </g>
                            <g transform="matrix(0.854898,0.518797,-0.518797,0.854898,742.779,-211.732)">
                                <g transform="matrix(49.8941,0,0,49.8941,749.901,1221.99)">
                                    <path d="M0.305,-0.543C0.141,-0.543 0.028,-0.433 0.028,-0.267C0.028,-0.104 0.137,0.006 0.309,0.006C0.406,0.006 0.485,-0.029 0.539,-0.089L0.458,-0.171C0.421,-0.134 0.373,-0.114 0.322,-0.114C0.253,-0.114 0.201,-0.154 0.183,-0.222L0.569,-0.222C0.582,-0.418 0.494,-0.543 0.305,-0.543ZM0.18,-0.313C0.192,-0.384 0.238,-0.43 0.306,-0.43C0.377,-0.43 0.423,-0.384 0.425,-0.313L0.18,-0.313Z" style="fill:rgb(17,40,76);fill-rule:nonzero;"/>
                                </g>
                            </g>
                            <g transform="matrix(0.906316,0.422602,-0.422602,0.906316,595.578,-211.755)">
                                <g transform="matrix(49.8941,0,0,49.8941,775.393,1237.42)">
                                    <path d="M0.386,0L0.537,0L0.536,-0.351C0.535,-0.472 0.452,-0.544 0.308,-0.544C0.214,-0.544 0.145,-0.522 0.065,-0.482L0.113,-0.376C0.169,-0.407 0.225,-0.423 0.273,-0.423C0.347,-0.423 0.385,-0.39 0.385,-0.333L0.385,-0.323L0.237,-0.323C0.105,-0.322 0.032,-0.262 0.032,-0.161C0.032,-0.063 0.102,0.007 0.217,0.007C0.292,0.007 0.35,-0.018 0.386,-0.063L0.386,0ZM0.26,-0.103C0.208,-0.103 0.176,-0.13 0.176,-0.171C0.176,-0.214 0.205,-0.232 0.264,-0.232L0.385,-0.232L0.385,-0.184C0.376,-0.138 0.325,-0.103 0.26,-0.103Z" style="fill:rgb(17,40,76);fill-rule:nonzero;"/>
                                </g>
                            </g>
                            <g transform="matrix(0.961515,0.274751,-0.274751,0.961515,374.531,-172.246)">
                                <g transform="matrix(49.8941,0,0,49.8941,802.119,1250.81)">
                                    <path d="M0.786,-0.544C0.695,-0.543 0.627,-0.503 0.592,-0.42C0.566,-0.498 0.501,-0.544 0.41,-0.544C0.329,-0.543 0.266,-0.511 0.228,-0.445L0.228,-0.538L0.074,-0.538L0.074,0L0.228,0L0.228,-0.266C0.228,-0.344 0.273,-0.402 0.348,-0.403C0.411,-0.403 0.451,-0.362 0.451,-0.293L0.451,0L0.604,0L0.604,-0.266C0.604,-0.344 0.649,-0.402 0.723,-0.403C0.787,-0.403 0.827,-0.362 0.827,-0.293L0.827,0L0.98,0L0.98,-0.338C0.98,-0.464 0.905,-0.544 0.786,-0.544Z" style="fill:rgb(17,40,76);fill-rule:nonzero;"/>
                                </g>
                            </g>
                            <g transform="matrix(0.990759,0.135633,-0.135633,0.990759,179.333,-103.906)">
                                <g transform="matrix(49.8941,0,0,49.8941,852.21,1264.13)">
                                    <path d="M0.256,-0.545C0.139,-0.545 0.044,-0.488 0.044,-0.377C0.044,-0.188 0.323,-0.234 0.323,-0.148C0.323,-0.119 0.294,-0.106 0.255,-0.106C0.196,-0.106 0.124,-0.13 0.068,-0.173L0.018,-0.069C0.079,-0.02 0.164,0.006 0.251,0.006C0.373,0.006 0.47,-0.052 0.47,-0.162C0.471,-0.352 0.187,-0.311 0.187,-0.392C0.187,-0.42 0.213,-0.432 0.249,-0.432C0.294,-0.432 0.354,-0.413 0.413,-0.38L0.466,-0.485C0.406,-0.523 0.33,-0.545 0.256,-0.545Z" style="fill:rgb(17,40,76);fill-rule:nonzero;"/>
                                </g>
                            </g>
                            <g transform="matrix(0.999364,0.0356599,-0.0356599,0.999364,45.7595,-30.4627)">
                                <g transform="matrix(49.8941,0,0,49.8941,876.865,1267.58)">
                                    <path d="M0.304,-0.543C0.139,-0.543 0.028,-0.432 0.028,-0.267C0.028,-0.104 0.139,0.006 0.302,0.006C0.412,0.006 0.496,-0.038 0.541,-0.113L0.435,-0.185C0.408,-0.143 0.365,-0.122 0.31,-0.122C0.235,-0.122 0.182,-0.181 0.182,-0.268C0.182,-0.354 0.235,-0.412 0.31,-0.412C0.363,-0.413 0.404,-0.391 0.433,-0.355L0.537,-0.43C0.489,-0.502 0.407,-0.543 0.304,-0.543Z" style="fill:rgb(17,40,76);fill-rule:nonzero;"/>
                                </g>
                            </g>
                            <g transform="matrix(0.99677,-0.0803073,0.0803073,0.99677,-98.9693,76.7816)">
                                <g transform="matrix(49.8941,0,0,49.8941,905.069,1268.78)">
                                    <path d="M0.419,-0.544C0.335,-0.543 0.271,-0.51 0.233,-0.443L0.233,-0.742L0.079,-0.742L0.079,0L0.233,0L0.233,-0.265C0.233,-0.344 0.28,-0.402 0.357,-0.403C0.423,-0.403 0.463,-0.361 0.463,-0.293L0.463,0L0.617,0L0.617,-0.338C0.617,-0.464 0.54,-0.544 0.419,-0.544Z" style="fill:rgb(17,40,76);fill-rule:nonzero;"/>
                                </g>
                            </g>
                            <g transform="matrix(0.98055,-0.19627,0.19627,0.98055,-230.222,208.846)">
                                <g transform="matrix(49.8941,0,0,49.8941,938.616,1266)">
                                    <path d="M0.305,-0.543C0.141,-0.543 0.028,-0.433 0.028,-0.267C0.028,-0.104 0.137,0.006 0.309,0.006C0.406,0.006 0.485,-0.029 0.539,-0.089L0.458,-0.171C0.421,-0.134 0.373,-0.114 0.322,-0.114C0.253,-0.114 0.201,-0.154 0.183,-0.222L0.569,-0.222C0.582,-0.418 0.494,-0.543 0.305,-0.543ZM0.18,-0.313C0.192,-0.384 0.238,-0.43 0.306,-0.43C0.377,-0.43 0.423,-0.384 0.425,-0.313L0.18,-0.313Z" style="fill:rgb(17,40,76);fill-rule:nonzero;"/>
                                </g>
                            </g>
                            <g transform="matrix(0.960495,-0.278297,0.278297,0.960495,-312.386,319.084)">
                                <g transform="matrix(49.8941,0,0,49.8941,967.72,1259.86)">
                                    <path d="M0.151,-0.777C0.102,-0.777 0.068,-0.741 0.068,-0.691C0.068,-0.641 0.102,-0.605 0.151,-0.605C0.2,-0.605 0.234,-0.641 0.234,-0.691C0.234,-0.741 0.2,-0.777 0.151,-0.777ZM0.228,0L0.228,-0.538L0.074,-0.538L0.074,0L0.228,0Z" style="fill:rgb(17,40,76);fill-rule:nonzero;"/>
                                </g>
                            </g>
                            <g transform="matrix(0.937344,-0.348406,0.348406,0.937344,-375.988,420.915)">
                                <g transform="matrix(49.8941,0,0,49.8941,982.276,1255.82)">
                                    <path d="M0.228,-0.538L0.074,-0.538L0.074,0L0.228,0L0.228,-0.259C0.228,-0.35 0.296,-0.409 0.406,-0.399L0.406,-0.544C0.326,-0.543 0.265,-0.507 0.228,-0.441L0.228,-0.538Z" style="fill:rgb(17,40,76);fill-rule:nonzero;"/>
                                </g>
                            </g>
                            <g transform="matrix(0.902413,-0.430872,0.430872,0.902413,-440.308,553.554)">
                                <g transform="matrix(49.8941,0,0,49.8941,1001.89,1248.81)">
                                    <path d="M0.305,-0.543C0.141,-0.543 0.028,-0.433 0.028,-0.267C0.028,-0.104 0.137,0.006 0.309,0.006C0.406,0.006 0.485,-0.029 0.539,-0.089L0.458,-0.171C0.421,-0.134 0.373,-0.114 0.322,-0.114C0.253,-0.114 0.201,-0.154 0.183,-0.222L0.569,-0.222C0.582,-0.418 0.494,-0.543 0.305,-0.543ZM0.18,-0.313C0.192,-0.384 0.238,-0.43 0.306,-0.43C0.377,-0.43 0.423,-0.384 0.425,-0.313L0.18,-0.313Z" style="fill:rgb(17,40,76);fill-rule:nonzero;"/>
                                </g>
                            </g>
                        </g>
                    </g>
                </g>
            </g>
        </g>
    </g>
</svg>
