<?xml version="1.0" encoding="UTF-8" standalone="no"?>
<!DOCTYPE svg PUBLIC "-//W3C//DTD SVG 1.1//EN" "http://www.w3.org/Graphics/SVG/1.1/DTD/svg11.dtd">
<svg width="100%" height="100%" viewBox="0 0 694 503" version="1.1" xmlns="http://www.w3.org/2000/svg" xmlns:xlink="http://www.w3.org/1999/xlink" xml:space="preserve" xmlns:serif="http://www.serif.com/" style="fill-rule:evenodd;clip-rule:evenodd;stroke-linejoin:round;stroke-miterlimit:1.41421;">
    <g transform="matrix(1,0,0,1,-12,-4423)">
        <g id="Artboard11" transform="matrix(1,0,0,3.87425,0,-12713.1)">
            <rect x="12" y="4423.08" width="693.483" height="129.645" style="fill:none;"/>
            <g transform="matrix(0.685116,0,0,0.176838,437.051,3848.95)">
                <g transform="matrix(0.227145,0,5.76695e-18,0.207674,-1426.24,3255.91)">
                    <path d="M7816.28,1041.88C7816.28,945.282 7744.69,866.977 7656.38,866.977C6995.08,866.977 4477.68,866.977 3816.38,866.977C3728.06,866.977 3656.47,945.282 3656.47,1041.88C3656.47,1333.89 3656.47,1917.42 3656.47,2209.43C3656.47,2306.03 3728.06,2384.33 3816.38,2384.33C4477.68,2384.33 6995.08,2384.33 7656.38,2384.33C7744.69,2384.33 7816.28,2306.03 7816.28,2209.43C7816.28,1917.42 7816.28,1333.89 7816.28,1041.88Z" style="fill:white;stroke:rgb(64,190,175);stroke-width:55.89px;"/>
                </g>
                <g id="connector1pin" transform="matrix(3.05179,0,8.47458e-17,3.05179,-301.413,3509.51)">
                    <path d="M14.75,29.15L14.75,21.95" style="fill:none;fill-rule:nonzero;"/>
                </g>
                <g transform="matrix(3.05179,0,8.47458e-17,3.05179,-301.413,3509.51)">
                    <path d="M14.75,7.55L8.99,10.43" style="fill:none;fill-rule:nonzero;"/>
                </g>
                <g transform="matrix(3.05179,0,8.47458e-17,3.05179,-331.625,3441.38)">
                    <path d="M24.65,44.274L21.05,44.274L22.49,41.394L24.65,44.274" style="fill:rgb(237,89,155);"/>
                </g>
                <g transform="matrix(3.05179,0,8.47458e-17,3.05179,-301.413,3509.51)">
                    <path d="M11.915,20.533L8.423,18.787" style="fill:none;fill-rule:nonzero;"/>
                </g>
                <g transform="matrix(3.05179,0,8.47458e-17,3.05179,-301.413,3509.51)">
                    <rect x="6.83" y="7.55" width="2.16" height="14.4" style="fill:rgb(237,89,155);"/>
                </g>
                <g id="connector2pin" transform="matrix(3.05179,0,8.47458e-17,3.05179,-301.413,3509.51)">
                    <path d="M14.75,0.35L14.75,7.55" style="fill:none;fill-rule:nonzero;"/>
                </g>
                <g transform="matrix(-3.05179,0,8.47458e-17,3.05179,-123.491,3509.51)">
                    <path d="M14.75,7.55L8.99,10.43" style="fill:none;fill-rule:nonzero;"/>
                </g>
                <g transform="matrix(3.05179,0,8.47458e-17,3.05179,-331.625,3441.38)">
                    <path d="M53.451,44.274L57.051,44.274L55.611,41.394L53.451,44.274" style="fill:rgb(237,89,155);"/>
                </g>
                <g transform="matrix(-3.05179,0,8.47458e-17,3.05179,-123.491,3509.51)">
                    <path d="M11.915,20.533L8.423,18.787" style="fill:none;fill-rule:nonzero;"/>
                </g>
                <g transform="matrix(-3.05179,0,8.47458e-17,3.05179,-123.491,3509.51)">
                    <rect x="6.83" y="7.55" width="2.16" height="14.4" style="fill:rgb(237,89,155);"/>
                </g>
                <g id="connector2pin1" serif:id="connector2pin" transform="matrix(-3.05179,0,8.47458e-17,3.05179,-123.491,3509.51)">
                    <path d="M14.75,0.35L14.75,7.55" style="fill:none;fill-rule:nonzero;"/>
                </g>
                <g id="connector2pin2" serif:id="connector2pin" transform="matrix(3.05179,0,8.47458e-17,3.05179,-301.413,3597.4)">
                    <path d="M14.75,0.35L14.75,7.55" style="fill:none;fill-rule:nonzero;"/>
                </g>
                <g transform="matrix(3.05179,0,8.47458e-17,3.05179,-301.413,3597.4)">
                    <path d="M14.75,7.55L8.99,10.43" style="fill:none;fill-rule:nonzero;"/>
                </g>
                <g transform="matrix(3.05179,0,8.47458e-17,3.05179,-331.625,3441.38)">
                    <path d="M24.65,73.074L21.05,73.074L22.49,70.194L24.65,73.074" style="fill:rgb(237,89,155);"/>
                </g>
                <g transform="matrix(3.05179,0,8.47458e-17,3.05179,-301.413,3597.4)">
                    <path d="M11.915,20.533L8.423,18.787" style="fill:none;fill-rule:nonzero;"/>
                </g>
                <g transform="matrix(3.05179,0,8.47458e-17,3.05179,-301.413,3597.4)">
                    <rect x="6.83" y="7.55" width="2.16" height="14.4" style="fill:rgb(237,89,155);"/>
                </g>
                <g id="connector1pin1" serif:id="connector1pin" transform="matrix(3.05179,0,8.47458e-17,3.05179,-301.413,3597.4)">
                    <path d="M14.75,29.15L14.75,21.95" style="fill:none;fill-rule:nonzero;"/>
                </g>
                <g id="connector2pin3" serif:id="connector2pin" transform="matrix(-3.05179,0,8.47458e-17,3.05179,-123.491,3597.4)">
                    <path d="M14.75,0.35L14.75,7.55" style="fill:none;fill-rule:nonzero;"/>
                </g>
                <g transform="matrix(-3.05179,0,8.47458e-17,3.05179,-123.491,3597.4)">
                    <path d="M14.75,7.55L8.99,10.43" style="fill:none;fill-rule:nonzero;"/>
                </g>
                <g transform="matrix(3.05179,0,8.47458e-17,3.05179,-331.625,3441.38)">
                    <path d="M55.611,70.194L53.451,73.074L57.051,73.074L55.611,70.194L55.611,70.194Z" style="fill:rgb(237,89,155);"/>
                </g>
                <g transform="matrix(-3.05179,0,8.47458e-17,3.05179,-123.491,3597.4)">
                    <path d="M11.915,20.533L8.423,18.787" style="fill:none;fill-rule:nonzero;"/>
                </g>
                <g transform="matrix(-3.05179,0,8.47458e-17,3.05179,-123.491,3597.4)">
                    <rect x="6.83" y="7.55" width="2.16" height="14.4" style="fill:rgb(237,89,155);"/>
                </g>
                <g id="connector1pin2" serif:id="connector1pin" transform="matrix(-3.05179,0,8.47458e-17,3.05179,-123.491,3597.4)">
                    <path d="M14.75,29.15L14.75,21.95" style="fill:none;fill-rule:nonzero;"/>
                </g>
                <g transform="matrix(3.05179,0,8.47458e-17,3.05179,-331.625,3441.38)">
                    <path d="M24.65,80.274L53.45,80.274" style="fill:none;fill-rule:nonzero;"/>
                </g>
                <g transform="matrix(3.05179,0,8.47458e-17,3.05179,-331.625,3441.38)">
                    <path d="M24.65,22.674L53.451,22.674" style="fill:none;fill-rule:nonzero;"/>
                </g>
                <g transform="matrix(2.40647,0,6.68259e-17,2.40647,-9668.22,2965.34)">
                    <path d="M3805.02,244.382C3802.24,244.382 3799.95,244.954 3798.16,246.098C3796.36,247.242 3795.46,248.971 3795.46,251.287C3795.46,253.602 3796.36,255.373 3798.16,256.598C3799.95,257.824 3803.78,259.145 3809.64,260.562C3815.49,261.978 3819.91,263.967 3822.87,266.527C3825.84,269.088 3827.33,272.86 3827.33,277.845C3827.33,282.83 3825.45,286.875 3821.69,289.98C3817.93,293.086 3813,294.638 3806.9,294.638C3797.96,294.638 3790.04,291.56 3783.12,285.404L3789.17,278.131C3794.94,283.143 3800.93,285.649 3807.14,285.649C3810.25,285.649 3812.71,284.982 3814.54,283.647C3816.36,282.313 3817.28,280.542 3817.28,278.336C3817.28,276.129 3816.42,274.413 3814.7,273.187C3812.99,271.962 3810.03,270.845 3805.84,269.837C3801.64,268.829 3798.45,267.903 3796.28,267.058C3794.1,266.214 3792.16,265.111 3790.47,263.749C3787.1,261.188 3785.41,257.266 3785.41,251.981C3785.41,246.697 3787.33,242.625 3791.17,239.764C3795.01,236.904 3799.76,235.474 3805.43,235.474C3809.08,235.474 3812.7,236.074 3816.3,237.272C3819.89,238.471 3823,240.159 3825.61,242.339L3820.46,249.612C3818.78,248.086 3816.49,246.833 3813.6,245.853C3810.71,244.872 3807.85,244.382 3805.02,244.382Z" style="fill:rgb(64,190,175);fill-rule:nonzero;"/>
                </g>
                <g transform="matrix(2.40647,0,6.68259e-17,2.40647,-9668.22,2965.34)">
                    <path d="M3865.33,285.241C3868.65,285.241 3871.51,284.682 3873.91,283.566C3876.31,282.449 3878.81,280.665 3881.43,278.213L3887.64,284.587C3881.59,291.288 3874.25,294.638 3865.61,294.638C3856.98,294.638 3849.81,291.86 3844.12,286.303C3838.43,280.746 3835.58,273.719 3835.58,265.22C3835.58,256.721 3838.48,249.639 3844.28,243.973C3850.09,238.307 3857.41,235.474 3866.27,235.474C3875.12,235.474 3882.51,238.743 3888.45,245.28L3882.33,251.981C3879.6,249.366 3877.03,247.541 3874.6,246.506C3872.18,245.471 3869.33,244.954 3866.06,244.954C3860.29,244.954 3855.44,246.82 3851.52,250.551C3847.59,254.283 3845.63,259.05 3845.63,264.852C3845.63,270.654 3847.58,275.503 3851.48,279.398C3855.37,283.293 3859.99,285.241 3865.33,285.241Z" style="fill:rgb(64,190,175);fill-rule:nonzero;"/>
                </g>
                <g transform="matrix(2.40647,0,6.68259e-17,2.40647,-9659.77,2965.34)">
                    <path d="M4006.7,236.863L4006.7,245.934L3976.22,245.934L3976.22,261.052L4003.6,261.052L4003.6,269.633L3976.22,269.633L3976.22,284.914L4007.68,284.914L4007.68,293.985L3966.58,293.985L3966.58,236.863L4006.7,236.863Z" style="fill:rgb(64,190,175);fill-rule:nonzero;"/>
                </g>
                <g transform="matrix(2.40647,0,6.68259e-17,2.40647,-9659.77,2965.34)">
                    <rect x="4020.02" y="236.863" width="9.643" height="57.121" style="fill:rgb(64,190,175);fill-rule:nonzero;"/>
                </g>
                <g transform="matrix(2.40647,0,6.68259e-17,2.40647,-9659.77,2965.34)">
                    <path d="M4091.12,255.414C4091.12,264.838 4087,270.777 4078.78,273.228L4093.73,293.985L4081.47,293.985L4067.83,274.781L4055.16,274.781L4055.16,293.985L4045.52,293.985L4045.52,236.863L4066.76,236.863C4075.48,236.863 4081.72,238.334 4085.48,241.276C4089.24,244.218 4091.12,248.931 4091.12,255.414ZM4067.17,266.037C4072.62,266.037 4076.32,265.193 4078.29,263.504C4080.25,261.815 4081.23,259.105 4081.23,255.373C4081.23,251.641 4080.22,249.08 4078.2,247.691C4076.19,246.302 4072.59,245.607 4067.42,245.607L4055.16,245.607L4055.16,266.037L4067.17,266.037Z" style="fill:rgb(64,190,175);fill-rule:nonzero;"/>
                </g>
                <g transform="matrix(2.40647,0,6.68259e-17,2.40647,-9659.77,2965.34)">
                    <path d="M4145.13,236.863L4145.13,245.934L4114.65,245.934L4114.65,261.052L4142.03,261.052L4142.03,269.633L4114.65,269.633L4114.65,284.914L4146.11,284.914L4146.11,293.985L4105.01,293.985L4105.01,236.863L4145.13,236.863Z" style="fill:rgb(64,190,175);fill-rule:nonzero;"/>
                </g>
                <g transform="matrix(0.232211,0,6.44831e-18,0.232211,-1516.31,3278.42)">
                    <g transform="matrix(382.35,0,0,382.35,4145.31,1003.81)">
                        <path d="M0.125,-0.389C0.082,-0.31 0.04,-0.226 0.019,-0.176C-0.029,-0.061 0.024,0.013 0.09,0.015C0.17,0.018 0.236,-0.07 0.249,-0.099C0.259,-0.122 0.264,-0.14 0.259,-0.156C0.255,-0.17 0.244,-0.168 0.238,-0.156C0.201,-0.081 0.144,-0.01 0.099,-0.012C0.057,-0.014 0.046,-0.076 0.079,-0.149C0.117,-0.233 0.174,-0.33 0.213,-0.397C0.238,-0.401 0.269,-0.404 0.291,-0.401C0.306,-0.401 0.31,-0.408 0.303,-0.42C0.295,-0.433 0.28,-0.451 0.241,-0.45C0.265,-0.502 0.265,-0.535 0.254,-0.563C0.249,-0.575 0.239,-0.576 0.23,-0.563C0.213,-0.541 0.185,-0.494 0.154,-0.439C0.127,-0.436 0.099,-0.434 0.071,-0.435C0.056,-0.436 0.05,-0.429 0.06,-0.415C0.068,-0.404 0.091,-0.389 0.125,-0.389Z" style="fill:rgb(64,190,175);fill-rule:nonzero;"/>
                    </g>
                    <g transform="matrix(382.35,0,0,382.35,4219.48,1003.81)">
                        <path d="M0.092,-0.171C0.162,-0.114 0.229,-0.14 0.278,-0.2C0.32,-0.251 0.328,-0.312 0.31,-0.336C0.294,-0.358 0.276,-0.373 0.251,-0.388C0.201,-0.417 0.099,-0.365 0.034,-0.236C-0.031,-0.107 0.013,0.018 0.14,0.016C0.217,0.015 0.294,-0.031 0.336,-0.092C0.354,-0.118 0.357,-0.146 0.353,-0.154C0.349,-0.163 0.341,-0.163 0.336,-0.155C0.293,-0.089 0.22,-0.009 0.137,-0.013C0.084,-0.016 0.06,-0.079 0.092,-0.171ZM0.101,-0.193C0.103,-0.198 0.106,-0.204 0.109,-0.21C0.156,-0.305 0.239,-0.365 0.26,-0.348C0.274,-0.337 0.252,-0.285 0.22,-0.243C0.191,-0.205 0.15,-0.162 0.101,-0.193Z" style="fill:rgb(64,190,175);fill-rule:nonzero;"/>
                    </g>
                    <g transform="matrix(382.35,0,0,382.35,4341.84,1003.81)">
                        <path d="M0.324,-0.325C0.326,-0.364 0.306,-0.397 0.263,-0.397C0.213,-0.397 0.134,-0.352 0.053,-0.234C-0.03,-0.113 -0.011,0.014 0.082,0.014C0.13,0.014 0.175,-0.023 0.207,-0.064C0.207,-0.017 0.235,0.015 0.289,0.018C0.344,0.021 0.407,-0.034 0.433,-0.089C0.446,-0.117 0.446,-0.142 0.442,-0.151C0.438,-0.16 0.431,-0.159 0.426,-0.15C0.391,-0.081 0.336,-0.013 0.295,-0.011C0.261,-0.009 0.262,-0.052 0.287,-0.108C0.311,-0.161 0.361,-0.236 0.383,-0.281C0.407,-0.331 0.399,-0.374 0.384,-0.392C0.377,-0.401 0.369,-0.399 0.36,-0.386C0.349,-0.37 0.337,-0.349 0.324,-0.325ZM0.237,-0.17C0.186,-0.082 0.134,-0.018 0.093,-0.019C0.054,-0.02 0.067,-0.108 0.12,-0.194C0.175,-0.283 0.248,-0.348 0.28,-0.345C0.309,-0.342 0.3,-0.28 0.237,-0.17Z" style="fill:rgb(64,190,175);fill-rule:nonzero;"/>
                    </g>
                    <g transform="matrix(382.35,0,0,382.35,4497.45,1003.81)">
                        <path d="M0.158,-0.284C0.173,-0.324 0.176,-0.363 0.159,-0.391C0.153,-0.401 0.145,-0.402 0.138,-0.391C0.075,-0.297 0.002,-0.156 -0.019,-0.093C-0.036,-0.042 -0.031,-0.009 -0.009,0.01C0,0.018 0.006,0.014 0.01,0.005C0.05,-0.089 0.098,-0.182 0.157,-0.246C0.221,-0.316 0.27,-0.343 0.282,-0.338C0.302,-0.331 0.194,-0.193 0.161,-0.11C0.132,-0.038 0.146,0.001 0.163,0.016C0.172,0.026 0.18,0.023 0.186,0.011C0.228,-0.083 0.277,-0.179 0.36,-0.262C0.425,-0.327 0.459,-0.338 0.467,-0.335C0.482,-0.33 0.393,-0.218 0.356,-0.135C0.319,-0.053 0.351,0.016 0.438,0.016C0.496,0.016 0.56,-0.034 0.588,-0.091C0.599,-0.114 0.602,-0.147 0.597,-0.154C0.592,-0.161 0.584,-0.161 0.579,-0.152C0.54,-0.082 0.495,-0.016 0.454,-0.015C0.418,-0.014 0.404,-0.06 0.432,-0.117C0.457,-0.167 0.506,-0.233 0.524,-0.278C0.544,-0.328 0.536,-0.387 0.5,-0.388C0.467,-0.389 0.4,-0.342 0.352,-0.295C0.365,-0.339 0.347,-0.392 0.313,-0.393C0.277,-0.394 0.202,-0.335 0.158,-0.284Z" style="fill:rgb(64,190,175);fill-rule:nonzero;"/>
                    </g>
                </g>
                <g transform="matrix(-8.47458e-17,-3.05179,3.05179,0,-257.466,3617.58)">
                    <path d="M6.494,3.973C6.486,4.058 6.474,4.083 6.45,4.127C6.3,4.407 5.757,4.355 5.745,3.95L5.745,0.35C5.755,0.023 6.291,-0.175 6.461,0.193C6.482,0.239 6.492,0.265 6.495,0.35L6.495,3.95C6.495,3.958 6.495,3.965 6.494,3.973Z" style="fill:rgb(237,89,155);fill-rule:nonzero;"/>
                </g>
                <g transform="matrix(-8.47458e-17,-3.05179,3.05179,0,-257.466,3617.58)">
                    <path d="M6.494,29.173C6.486,29.258 6.474,29.283 6.45,29.327C6.302,29.603 5.757,29.555 5.745,29.15L5.745,25.551C5.755,25.224 6.291,25.026 6.461,25.394C6.482,25.44 6.492,25.466 6.495,25.551L6.495,29.15C6.495,29.158 6.495,29.165 6.494,29.173Z" style="fill:rgb(237,89,155);fill-rule:nonzero;"/>
                </g>
                <g transform="matrix(-8.47458e-17,-3.05179,3.05179,0,-257.466,3617.58)">
                    <path d="M12.33,14.777C12.319,16.535 11.528,18.274 10.187,19.441L10.17,19.456L10.17,26.001L2.07,26.001L2.07,19.456C1.062,18.586 0.346,17.397 0.058,16.106C-0.426,13.937 0.326,11.563 2.052,10.06L2.07,10.044L2.07,3.5L10.17,3.5L10.17,10.044C11.501,11.193 12.311,12.925 12.33,14.695C12.33,14.723 12.33,14.75 12.33,14.777ZM3.513,10.125C2.201,10.87 1.23,12.186 0.922,13.656C0.462,15.848 1.546,18.271 3.532,19.386L5.068,20.24L2.97,20.24L2.97,25.101L9.27,25.101L9.27,20.24L7.171,20.24C8.122,19.711 9.11,19.264 9.868,18.509C11.294,17.089 11.802,14.823 11.109,12.927C10.682,11.759 9.837,10.76 8.746,10.136L8.708,10.114L7.172,9.26L9.27,9.26L9.27,4.4L2.97,4.4L2.97,9.26L5.066,9.26C4.548,9.548 4.029,9.835 3.513,10.125Z" style="fill:rgb(237,89,155);fill-rule:nonzero;"/>
                </g>
                <g transform="matrix(-8.47458e-17,-3.05179,3.05179,0,-257.466,3617.58)">
                    <path d="M2.969,9.742C2.928,10.119 2.344,10.328 2.125,9.926C2.091,9.864 2.074,9.829 2.07,9.71L2.07,3.95C2.084,3.559 2.692,3.325 2.915,3.734C2.949,3.796 2.966,3.831 2.97,3.95L2.97,9.71C2.97,9.721 2.969,9.731 2.969,9.742Z" style="fill:rgb(237,89,155);fill-rule:nonzero;"/>
                </g>
                <g transform="matrix(-8.47458e-17,-3.05179,3.05179,0,-257.466,3617.58)">
                    <path d="M6.569,3.975C6.562,4.057 6.553,4.079 6.536,4.122C6.475,4.27 6.33,4.379 6.17,4.397C6.148,4.4 6.142,4.399 6.12,4.4L2.52,4.4C2.417,4.397 2.383,4.383 2.325,4.355C2.048,4.222 1.994,3.771 2.26,3.583C2.315,3.544 2.378,3.518 2.445,3.506C2.47,3.502 2.495,3.501 2.52,3.5L6.12,3.5C6.202,3.502 6.225,3.51 6.269,3.525C6.427,3.581 6.548,3.731 6.567,3.9C6.573,3.948 6.57,3.96 6.569,3.975Z" style="fill:rgb(237,89,155);fill-rule:nonzero;"/>
                </g>
                <g transform="matrix(-8.47458e-17,-3.05179,3.05179,0,-257.466,3617.58)">
                    <path d="M10.169,3.975C10.162,4.057 10.153,4.079 10.136,4.122C10.075,4.27 9.93,4.379 9.77,4.397C9.748,4.4 9.742,4.399 9.72,4.4L6.12,4.4C5.778,4.39 5.533,3.931 5.784,3.65C5.869,3.556 5.955,3.505 6.12,3.5L9.72,3.5C9.802,3.502 9.825,3.51 9.869,3.525C10.027,3.581 10.148,3.731 10.167,3.9C10.173,3.948 10.17,3.96 10.169,3.975Z" style="fill:rgb(237,89,155);fill-rule:nonzero;"/>
                </g>
                <g transform="matrix(-8.47458e-17,-3.05179,3.05179,0,-257.466,3617.58)">
                    <path d="M10.169,9.742C10.128,10.123 9.532,10.306 9.325,9.926C9.291,9.864 9.274,9.829 9.27,9.71L9.27,3.95C9.284,3.558 9.899,3.339 10.115,3.734C10.149,3.796 10.166,3.831 10.17,3.95L10.17,9.71C10.17,9.721 10.169,9.731 10.169,9.742Z" style="fill:rgb(237,89,155);fill-rule:nonzero;"/>
                </g>
                <g transform="matrix(-8.47458e-17,-3.05179,3.05179,0,-257.466,3617.58)">
                    <path d="M10.169,25.583C10.156,25.701 10.137,25.735 10.099,25.794C9.95,26.025 9.572,26.067 9.38,25.846C9.31,25.765 9.274,25.659 9.27,25.551L9.27,19.79C9.284,19.395 9.897,19.176 10.115,19.574C10.149,19.636 10.166,19.671 10.17,19.79L10.17,25.551C10.17,25.562 10.169,25.572 10.169,25.583Z" style="fill:rgb(237,89,155);fill-rule:nonzero;"/>
                </g>
                <g transform="matrix(-8.47458e-17,-3.05179,3.05179,0,-257.466,3617.58)">
                    <path d="M10.169,25.576C10.162,25.658 10.153,25.68 10.136,25.723C10.075,25.871 9.93,25.98 9.77,25.998C9.748,26.001 9.742,26 9.72,26.001L6.12,26.001C6.017,25.998 5.983,25.984 5.925,25.956C5.649,25.824 5.585,25.379 5.86,25.184C5.915,25.145 5.978,25.119 6.045,25.107C6.07,25.103 6.095,25.102 6.12,25.101L9.72,25.101C9.802,25.103 9.825,25.111 9.869,25.126C10.027,25.182 10.148,25.332 10.167,25.501C10.173,25.549 10.17,25.561 10.169,25.576Z" style="fill:rgb(237,89,155);fill-rule:nonzero;"/>
                </g>
                <g transform="matrix(-8.47458e-17,-3.05179,3.05179,0,-257.466,3617.58)">
                    <path d="M6.569,25.576C6.562,25.658 6.553,25.68 6.536,25.723C6.475,25.871 6.33,25.98 6.17,25.998C6.148,26.001 6.142,26 6.12,26.001L2.52,26.001C2.177,25.991 1.932,25.534 2.184,25.251C2.269,25.157 2.355,25.106 2.52,25.101L6.12,25.101C6.202,25.103 6.225,25.111 6.269,25.126C6.427,25.182 6.548,25.332 6.567,25.501C6.573,25.549 6.57,25.561 6.569,25.576Z" style="fill:rgb(237,89,155);fill-rule:nonzero;"/>
                </g>
                <g transform="matrix(-8.47458e-17,-3.05179,3.05179,0,-257.466,3617.58)">
                    <path d="M2.969,25.583C2.956,25.701 2.937,25.735 2.899,25.794C2.749,26.026 2.37,26.064 2.18,25.846C2.11,25.765 2.074,25.659 2.07,25.551L2.07,19.79C2.08,19.506 2.375,19.278 2.647,19.358C2.811,19.407 2.941,19.556 2.965,19.726C2.969,19.754 2.969,19.761 2.97,19.79L2.97,25.551C2.97,25.562 2.969,25.572 2.969,25.583Z" style="fill:rgb(237,89,155);fill-rule:nonzero;"/>
                </g>
                <g transform="matrix(-8.47458e-17,-3.05179,3.05179,0,-257.466,3617.58)">
                    <path d="M12.33,14.77C12.322,16.481 11.578,18.166 10.322,19.321C8.874,20.653 6.773,21.23 4.851,20.83C2.47,20.334 0.475,18.33 0.018,15.906C-0.334,14.042 0.217,12.031 1.499,10.603C2.375,9.628 3.565,8.938 4.851,8.67C7.134,8.195 9.647,9.122 11.073,11.005C11.87,12.058 12.315,13.362 12.33,14.69C12.33,14.717 12.33,14.743 12.33,14.77ZM11.43,14.733C11.423,13.275 10.789,11.831 9.713,10.842C8.476,9.703 6.677,9.209 5.034,9.551C2.69,10.039 0.818,12.25 0.81,14.733C0.804,16.618 1.885,18.466 3.534,19.388C4.933,20.17 6.694,20.269 8.171,19.649C10.062,18.855 11.4,16.904 11.43,14.819C11.43,14.79 11.43,14.761 11.43,14.733Z" style="fill:rgb(237,89,155);fill-rule:nonzero;"/>
                </g>
                <g transform="matrix(3.05179,0,8.47458e-17,3.05179,-301.413,3509.51)">
                    <path d="M14.797,21.603C14.966,21.634 15.092,21.776 15.1,21.95L15.1,29.15C15.09,29.365 14.996,29.415 14.916,29.458C14.707,29.571 14.412,29.412 14.4,29.15L14.4,21.95C14.409,21.747 14.588,21.584 14.797,21.603Z" style="fill:rgb(237,89,155);fill-rule:nonzero;"/>
                </g>
                <g transform="matrix(3.05179,0,8.47458e-17,3.05179,-301.413,3509.51)">
                    <path d="M14.785,7.202C14.976,7.229 14.997,7.288 15.042,7.357C15.14,7.505 15.102,7.728 14.955,7.834C14.934,7.849 14.928,7.851 14.907,7.863L9.147,10.743C8.977,10.819 8.943,10.785 8.873,10.76C8.621,10.67 8.568,10.263 8.833,10.117L14.593,7.237C14.653,7.21 14.718,7.198 14.785,7.202Z" style="fill:rgb(237,89,155);fill-rule:nonzero;"/>
                </g>
                <g transform="matrix(3.05179,0,8.47458e-17,3.05179,-331.625,3441.38)">
                    <path d="M22.498,41.244C22.565,41.251 22.569,41.255 22.61,41.304C23.33,42.265 24.097,43.192 24.771,44.186C24.818,44.245 24.819,44.232 24.793,44.32C24.775,44.379 24.65,44.424 24.65,44.424L21.05,44.424C21.05,44.424 20.848,44.36 20.916,44.207L22.356,41.327C22.384,41.277 22.412,41.244 22.498,41.244ZM22.516,41.678L21.293,44.124L24.35,44.124C23.739,43.309 23.127,42.494 22.516,41.678Z" style="fill:rgb(237,89,155);fill-rule:nonzero;"/>
                </g>
                <g transform="matrix(3.05179,0,8.47458e-17,3.05179,-301.413,3509.51)">
                    <path d="M8.453,18.438C8.497,18.443 8.539,18.455 8.58,18.474L12.072,20.22C12.143,20.258 12.16,20.278 12.19,20.316C12.375,20.55 12.109,21.007 11.759,20.846L8.267,19.1C7.993,18.952 8.016,18.44 8.431,18.437C8.439,18.437 8.446,18.438 8.453,18.438Z" style="fill:rgb(237,89,155);fill-rule:nonzero;"/>
                </g>
                <g transform="matrix(3.05179,0,8.47458e-17,3.05179,-301.413,3509.51)">
                    <path d="M14.797,0.003C14.964,0.034 15.092,0.179 15.1,0.35L15.1,7.55C15.09,7.781 14.986,7.83 14.888,7.872C14.679,7.961 14.411,7.793 14.4,7.55L14.4,0.35C14.409,0.147 14.588,-0.016 14.797,0.003Z" style="fill:rgb(237,89,155);fill-rule:nonzero;"/>
                </g>
                <g transform="matrix(3.05179,0,8.47458e-17,3.05179,-331.625,3441.38)">
                    <path d="M17.841,36.715C17.943,36.728 17.97,36.746 18.017,36.779C18.188,36.898 18.218,37.176 18.065,37.329C18,37.394 17.951,37.429 17.81,37.435L10.791,37.435C10.689,37.43 10.661,37.415 10.611,37.386C10.422,37.278 10.374,36.981 10.536,36.819C10.601,36.754 10.65,36.72 10.791,36.714L17.81,36.714C17.82,36.714 17.831,36.715 17.841,36.715Z" style="fill:rgb(237,89,155);fill-rule:nonzero;"/>
                </g>
                <g transform="matrix(3.05179,0,8.47458e-17,3.05179,-331.625,3529.28)">
                    <path d="M17.841,36.715C18.018,36.738 18.039,36.786 18.086,36.842C18.247,37.034 18.123,37.385 17.873,37.429C17.845,37.434 17.838,37.433 17.81,37.435L10.791,37.435C10.575,37.425 10.524,37.333 10.479,37.254C10.365,37.057 10.491,36.761 10.729,36.719C10.756,36.714 10.763,36.715 10.791,36.714L17.81,36.714C17.82,36.714 17.831,36.715 17.841,36.715Z" style="fill:rgb(237,89,155);fill-rule:nonzero;"/>
                </g>
                <g transform="matrix(3.05179,0,8.47458e-17,3.05179,-180.563,3441.38)">
                    <path d="M17.841,36.715C17.943,36.728 17.97,36.746 18.017,36.779C18.188,36.898 18.218,37.176 18.065,37.329C18,37.394 17.951,37.429 17.81,37.435L10.791,37.435C10.689,37.43 10.661,37.415 10.611,37.386C10.421,37.277 10.376,36.98 10.536,36.819C10.601,36.754 10.65,36.72 10.791,36.714L17.81,36.714C17.82,36.714 17.831,36.715 17.841,36.715Z" style="fill:rgb(237,89,155);fill-rule:nonzero;"/>
                </g>
                <g transform="matrix(3.05179,0,8.47458e-17,3.05179,-180.563,3529.28)">
                    <path d="M17.841,36.715C18.018,36.738 18.039,36.786 18.086,36.842C18.247,37.034 18.123,37.385 17.873,37.429C17.845,37.434 17.838,37.433 17.81,37.435L10.791,37.435C10.473,37.421 10.446,37.262 10.432,37.106C10.417,36.929 10.551,36.75 10.729,36.719C10.756,36.714 10.763,36.715 10.791,36.714L17.81,36.714C17.82,36.714 17.831,36.715 17.841,36.715Z" style="fill:rgb(237,89,155);fill-rule:nonzero;"/>
                </g>
                <g transform="matrix(-3.05179,0,8.47458e-17,3.05179,-123.491,3509.51)">
                    <path d="M14.729,7.201C14.635,7.21 14.659,7.207 14.593,7.237L8.833,10.117C8.753,10.161 8.736,10.184 8.706,10.226C8.582,10.398 8.659,10.684 8.873,10.76C8.961,10.791 9.06,10.782 9.147,10.743L14.907,7.863C15.069,7.773 15.062,7.725 15.084,7.654C15.143,7.466 15.008,7.241 14.813,7.206C14.76,7.196 14.746,7.2 14.729,7.201Z" style="fill:rgb(237,89,155);fill-rule:nonzero;"/>
                </g>
                <g transform="matrix(3.05179,0,8.47458e-17,3.05179,-331.625,3441.38)">
                    <path d="M55.631,41.245C55.703,41.259 55.711,41.266 55.745,41.327L57.185,44.207C57.227,44.303 57.161,44.419 57.051,44.424C55.85,44.424 54.648,44.481 53.449,44.424C53.386,44.425 53.403,44.444 53.337,44.372C53.302,44.333 53.281,44.247 53.33,44.186C53.33,44.186 55.491,41.304 55.491,41.304C55.491,41.304 55.539,41.237 55.631,41.245ZM53.751,44.124L56.808,44.124L55.585,41.678C54.974,42.493 54.362,43.309 53.751,44.124Z" style="fill:rgb(237,89,155);fill-rule:nonzero;"/>
                </g>
                <g transform="matrix(-3.05179,0,8.47458e-17,3.05179,-123.491,3509.51)">
                    <path d="M8.409,18.437C8.103,18.458 7.923,18.914 8.267,19.1L11.759,20.846C11.832,20.88 11.859,20.881 11.907,20.883C12.205,20.89 12.411,20.403 12.072,20.22L8.58,18.474C8.526,18.449 8.469,18.436 8.409,18.437Z" style="fill:rgb(237,89,155);fill-rule:nonzero;"/>
                </g>
                <g transform="matrix(-3.05179,0,8.47458e-17,3.05179,-123.491,3509.51)">
                    <path d="M14.703,21.603C14.536,21.634 14.408,21.779 14.4,21.95L14.4,29.15C14.41,29.365 14.504,29.415 14.584,29.458C14.793,29.571 15.088,29.412 15.1,29.15L15.1,21.95C15.091,21.747 14.912,21.585 14.703,21.603Z" style="fill:rgb(237,89,155);fill-rule:nonzero;"/>
                </g>
                <g transform="matrix(-3.05179,0,8.47458e-17,3.05179,-123.491,3509.51)">
                    <path d="M14.703,0.003C14.536,0.034 14.408,0.179 14.4,0.35L14.4,7.55C14.41,7.765 14.504,7.815 14.584,7.858C14.793,7.97 15.088,7.811 15.1,7.55L15.1,0.35C15.091,0.147 14.912,-0.016 14.703,0.003Z" style="fill:rgb(237,89,155);fill-rule:nonzero;"/>
                </g>
                <g transform="matrix(3.05179,0,8.47458e-17,3.05179,-301.413,3597.4)">
                    <path d="M14.797,0.003C14.966,0.034 15.092,0.176 15.1,0.35L15.1,7.55C15.086,7.856 14.924,7.88 14.797,7.897C14.601,7.923 14.409,7.755 14.4,7.55L14.4,0.35C14.409,0.147 14.588,-0.016 14.797,0.003Z" style="fill:rgb(237,89,155);fill-rule:nonzero;"/>
                </g>
                <g transform="matrix(3.05179,0,8.47458e-17,3.05179,-301.413,3597.4)">
                    <path d="M14.785,7.202C14.969,7.228 14.979,7.275 15.025,7.334C15.141,7.482 15.108,7.723 14.955,7.834C14.934,7.849 14.928,7.851 14.907,7.863L9.147,10.743C8.843,10.88 8.413,10.414 8.785,10.146C8.806,10.131 8.812,10.129 8.833,10.117L14.593,7.237C14.653,7.21 14.718,7.198 14.785,7.202Z" style="fill:rgb(237,89,155);fill-rule:nonzero;"/>
                </g>
                <g transform="matrix(3.05179,0,8.47458e-17,3.05179,-331.625,3441.38)">
                    <path d="M22.498,70.044C22.565,70.051 22.569,70.055 22.61,70.104C23.33,71.065 24.097,71.992 24.771,72.986C24.868,73.11 24.741,73.226 24.652,73.224L21.05,73.224C21.05,73.224 20.848,73.16 20.916,73.007L22.356,70.127C22.384,70.077 22.412,70.044 22.498,70.044ZM22.516,70.478L21.293,72.924L24.35,72.924C23.739,72.109 23.127,71.294 22.516,70.478Z" style="fill:rgb(237,89,155);fill-rule:nonzero;"/>
                </g>
                <g transform="matrix(3.05179,0,8.47458e-17,3.05179,-301.413,3597.4)">
                    <path d="M8.453,18.438C8.497,18.443 8.539,18.455 8.58,18.474L12.072,20.22C12.143,20.258 12.16,20.278 12.19,20.316C12.372,20.546 12.129,21.016 11.759,20.846L8.267,19.1C7.993,18.952 8.016,18.44 8.431,18.437C8.439,18.437 8.446,18.438 8.453,18.438Z" style="fill:rgb(237,89,155);fill-rule:nonzero;"/>
                </g>
                <g transform="matrix(3.05179,0,8.47458e-17,3.05179,-301.413,3597.4)">
                    <path d="M14.797,21.603C14.966,21.634 15.092,21.776 15.1,21.95L15.1,29.15C15.089,29.392 14.977,29.444 14.858,29.483C14.651,29.55 14.41,29.383 14.4,29.15L14.4,21.95C14.409,21.747 14.588,21.585 14.797,21.603Z" style="fill:rgb(237,89,155);fill-rule:nonzero;"/>
                </g>
                <g transform="matrix(-3.05179,0,8.47458e-17,3.05179,-123.491,3597.4)">
                    <path d="M14.703,0.003C14.536,0.034 14.408,0.179 14.4,0.35L14.4,7.55C14.418,7.946 14.672,7.927 14.828,7.891C14.981,7.856 15.093,7.711 15.1,7.55L15.1,0.35C15.091,0.147 14.912,-0.016 14.703,0.003Z" style="fill:rgb(237,89,155);fill-rule:nonzero;"/>
                </g>
                <g transform="matrix(-3.05179,0,8.47458e-17,3.05179,-123.491,3597.4)">
                    <path d="M14.729,7.201C14.689,7.205 14.673,7.201 14.593,7.237L8.833,10.117C8.671,10.207 8.678,10.255 8.656,10.326C8.576,10.582 8.87,10.868 9.147,10.743L14.907,7.863C15.069,7.773 15.062,7.725 15.084,7.654C15.143,7.466 15.008,7.241 14.813,7.206C14.76,7.196 14.746,7.2 14.729,7.201Z" style="fill:rgb(237,89,155);fill-rule:nonzero;"/>
                </g>
                <g transform="matrix(3.05179,0,8.47458e-17,3.05179,-331.625,3441.38)">
                    <path d="M55.631,70.046C55.703,70.059 55.711,70.066 55.745,70.127L57.185,73.007C57.227,73.103 57.158,73.219 57.051,73.224L53.451,73.224C53.337,73.219 53.263,73.084 53.331,72.984L55.491,70.104C55.54,70.044 55.548,70.038 55.631,70.046ZM53.751,72.924L56.808,72.924L55.585,70.478C54.974,71.294 54.362,72.109 53.751,72.924Z" style="fill:rgb(237,89,155);fill-rule:nonzero;"/>
                </g>
                <g transform="matrix(-3.05179,0,8.47458e-17,3.05179,-123.491,3597.4)">
                    <path d="M8.409,18.437C8.103,18.458 7.923,18.914 8.267,19.1L11.759,20.846C12.038,20.975 12.425,20.614 12.19,20.316C12.16,20.278 12.143,20.258 12.072,20.22L8.58,18.474C8.526,18.449 8.469,18.436 8.409,18.437Z" style="fill:rgb(237,89,155);fill-rule:nonzero;"/>
                </g>
                <g transform="matrix(-3.05179,0,8.47458e-17,3.05179,-123.491,3597.4)">
                    <path d="M14.703,21.603C14.536,21.634 14.408,21.779 14.4,21.95L14.4,29.15C14.41,29.365 14.504,29.415 14.584,29.458C14.793,29.571 15.088,29.412 15.1,29.15L15.1,21.95C15.091,21.747 14.912,21.585 14.703,21.603Z" style="fill:rgb(237,89,155);fill-rule:nonzero;"/>
                </g>
                <g transform="matrix(3.05179,0,8.47458e-17,3.05179,-234.368,3467.94)">
                    <path d="M7.233,6.406C7.42,6.431 7.567,6.589 7.575,6.78L7.575,13.98C7.57,14.087 7.555,14.116 7.525,14.167C7.411,14.364 7.103,14.413 6.935,14.245C6.867,14.178 6.831,14.127 6.825,13.98L6.825,6.78C6.834,6.568 7.015,6.397 7.233,6.406Z" style="fill:rgb(237,89,155);fill-rule:nonzero;"/>
                </g>
                <g transform="matrix(3.05179,0,8.47458e-17,3.05179,-234.368,3467.94)">
                    <path d="M13.999,6.117C14.343,6.173 14.53,6.635 14.259,6.891C14.182,6.964 14.13,7.004 13.95,7.014L0.45,7.014C0.084,6.994 -0.14,6.503 0.141,6.237C0.218,6.164 0.27,6.124 0.45,6.114L13.95,6.114C13.966,6.115 13.982,6.116 13.999,6.117Z" style="fill:rgb(237,89,155);fill-rule:nonzero;"/>
                </g>
                <g transform="matrix(3.05179,0,8.10027e-17,2.917,-234.427,3685.93)">
                    <path d="M7.248,-0.006C7.426,0.026 7.56,0.185 7.568,0.375L7.568,7.575C7.563,7.681 7.549,7.71 7.521,7.762C7.41,7.97 7.1,8.019 6.936,7.841C6.873,7.772 6.84,7.721 6.834,7.575L6.834,0.375C6.843,0.153 7.028,-0.025 7.248,-0.006Z" style="fill:rgb(237,89,155);fill-rule:nonzero;"/>
                </g>
                <g transform="matrix(3.05179,0,8.47458e-17,3.05179,-234.427,3684.91)">
                    <path d="M13.949,7.264C14.126,7.293 14.174,7.338 14.243,7.42C14.458,7.673 14.277,8.141 13.9,8.161L0.5,8.161C0.32,8.151 0.268,8.111 0.191,8.038C-0.059,7.801 0.095,7.283 0.5,7.261L13.9,7.261C13.916,7.262 13.932,7.263 13.949,7.264Z" style="fill:rgb(237,89,155);fill-rule:nonzero;"/>
                </g>
                <g transform="matrix(3.05179,0,8.47458e-17,3.05179,-234.427,3684.91)">
                    <path d="M11.706,10.008C11.927,10.037 11.952,10.096 12.012,10.167C12.154,10.337 12.144,10.615 11.985,10.774C11.92,10.839 11.836,10.883 11.745,10.899C11.711,10.905 11.702,10.904 11.667,10.906L2.732,10.906C2.697,10.904 2.688,10.905 2.654,10.899C2.261,10.83 2.153,10.101 2.654,10.013C2.688,10.007 2.697,10.008 2.732,10.006L11.667,10.006C11.68,10.007 11.693,10.007 11.706,10.008Z" style="fill:rgb(237,89,155);fill-rule:nonzero;"/>
                </g>
                <g transform="matrix(3.05179,0,8.47458e-17,3.05179,-234.427,3684.91)">
                    <path d="M9.459,12.726C9.851,12.763 10.029,13.391 9.623,13.582C9.566,13.609 9.535,13.622 9.431,13.625L4.967,13.625C4.863,13.622 4.832,13.609 4.775,13.582C4.497,13.451 4.438,13.003 4.702,12.811C4.756,12.772 4.818,12.745 4.883,12.733C4.91,12.728 4.939,12.726 4.967,12.725L9.431,12.725C9.44,12.725 9.45,12.726 9.459,12.726Z" style="fill:rgb(237,89,155);fill-rule:nonzero;"/>
                </g>
                <g transform="matrix(3.05179,0,8.47458e-17,3.05179,-331.625,3441.38)">
                    <path d="M53.584,79.951L53.698,80.027L53.774,80.14L53.8,80.274L53.774,80.408L53.698,80.522L53.584,80.598L53.45,80.624L24.65,80.624L24.516,80.598L24.403,80.522L24.327,80.408L24.3,80.274L24.327,80.14L24.403,80.027C24.516,79.952 24.517,79.951 24.65,79.924L53.45,79.924C53.495,79.933 53.54,79.942 53.584,79.951Z" style="fill:rgb(237,89,155);fill-rule:nonzero;"/>
                </g>
                <g transform="matrix(3.05179,0,8.47458e-17,3.05179,-331.625,3441.38)">
                    <path d="M53.585,22.351C53.697,22.426 53.699,22.427 53.774,22.54L53.801,22.674C53.792,22.719 53.791,22.766 53.774,22.808C53.726,22.924 53.683,22.932 53.585,22.997L53.451,23.024L24.65,23.024L24.516,22.998L24.403,22.922L24.327,22.808C24.3,22.675 24.3,22.673 24.327,22.54L24.403,22.427L24.516,22.351L24.65,22.324L53.451,22.324C53.495,22.333 53.54,22.342 53.585,22.351Z" style="fill:rgb(237,89,155);fill-rule:nonzero;"/>
                </g>
            </g>
        </g>
    </g>
</svg>
