<?xml version="1.0" encoding="UTF-8" standalone="no"?>
<!DOCTYPE svg PUBLIC "-//W3C//DTD SVG 1.1//EN" "http://www.w3.org/Graphics/SVG/1.1/DTD/svg11.dtd">
<svg width="100%" height="100%" viewBox="0 0 706 422" version="1.1" xmlns="http://www.w3.org/2000/svg" xmlns:xlink="http://www.w3.org/1999/xlink" xml:space="preserve" xmlns:serif="http://www.serif.com/" style="fill-rule:evenodd;clip-rule:evenodd;stroke-linejoin:round;stroke-miterlimit:1.41421;">
    <g transform="matrix(1,0,0,1,0,-1477)">
        <g id="Artboard7" transform="matrix(1,0,0,1,0,-0.377699)">
            <rect x="0" y="1477.38" width="705.483" height="421.545" style="fill:none;"/>
            <clipPath id="_clip1">
                <rect x="0" y="1477.38" width="705.483" height="421.545"/>
            </clipPath>
            <g clip-path="url(#_clip1)">
                <g transform="matrix(0.169595,0,1.72694e-18,0.155057,-620.119,1441.85)">
                    <path d="M7816.28,957.595C7816.28,933.562 7807.55,910.513 7792.02,893.519C7776.48,876.524 7755.41,866.977 7733.43,866.977C7201.47,866.977 4271.28,866.977 3739.32,866.977C3717.35,866.977 3696.28,876.524 3680.74,893.519C3665.2,910.513 3656.47,933.562 3656.47,957.595C3656.47,1227.47 3656.47,2023.84 3656.47,2293.72C3656.47,2317.75 3665.2,2340.8 3680.74,2357.79C3696.28,2374.78 3717.35,2384.33 3739.32,2384.33C4271.28,2384.33 7201.47,2384.33 7733.43,2384.33C7755.41,2384.33 7776.48,2374.78 7792.02,2357.79C7807.55,2340.8 7816.28,2317.75 7816.28,2293.72C7816.28,2023.84 7816.28,1227.47 7816.28,957.595Z" style="stroke:white;stroke-width:24.36px;"/>
                </g>
                <g transform="matrix(1.79676,-2.76311e-17,8.28933e-17,1.79676,-6767.05,1222.93)">
                    <path d="M3805.02,244.382C3802.24,244.382 3799.95,244.954 3798.16,246.098C3796.36,247.242 3795.46,248.971 3795.46,251.287C3795.46,253.602 3796.36,255.373 3798.16,256.598C3799.95,257.824 3803.78,259.145 3809.64,260.562C3815.49,261.978 3819.91,263.967 3822.87,266.527C3825.84,269.088 3827.33,272.86 3827.33,277.845C3827.33,282.83 3825.45,286.875 3821.69,289.98C3817.93,293.086 3813,294.638 3806.9,294.638C3797.96,294.638 3790.04,291.56 3783.12,285.404L3789.17,278.131C3794.94,283.143 3800.93,285.649 3807.14,285.649C3810.25,285.649 3812.71,284.982 3814.54,283.647C3816.36,282.313 3817.28,280.542 3817.28,278.336C3817.28,276.129 3816.42,274.413 3814.7,273.187C3812.99,271.962 3810.03,270.845 3805.84,269.837C3801.64,268.829 3798.45,267.903 3796.28,267.058C3794.1,266.214 3792.16,265.111 3790.47,263.749C3787.1,261.188 3785.41,257.266 3785.41,251.981C3785.41,246.697 3787.33,242.625 3791.17,239.764C3795.01,236.904 3799.76,235.474 3805.43,235.474C3809.08,235.474 3812.7,236.074 3816.3,237.272C3819.89,238.471 3823,240.159 3825.61,242.339L3820.46,249.612C3818.78,248.086 3816.49,246.833 3813.6,245.853C3810.71,244.872 3807.85,244.382 3805.02,244.382Z" style="fill:white;fill-rule:nonzero;"/>
                </g>
                <g transform="matrix(1.79676,-2.76311e-17,1.10524e-16,1.79676,-6767.05,1222.93)">
                    <path d="M3865.33,285.241C3868.65,285.241 3871.51,284.682 3873.91,283.566C3876.31,282.449 3878.81,280.665 3881.43,278.213L3887.64,284.587C3881.59,291.288 3874.25,294.638 3865.61,294.638C3856.98,294.638 3849.81,291.86 3844.12,286.303C3838.43,280.746 3835.58,273.719 3835.58,265.22C3835.58,256.721 3838.48,249.639 3844.28,243.973C3850.09,238.307 3857.41,235.474 3866.27,235.474C3875.12,235.474 3882.51,238.743 3888.45,245.28L3882.33,251.981C3879.6,249.366 3877.03,247.541 3874.6,246.506C3872.18,245.471 3869.33,244.954 3866.06,244.954C3860.29,244.954 3855.44,246.82 3851.52,250.551C3847.59,254.283 3845.63,259.05 3845.63,264.852C3845.63,270.654 3847.58,275.503 3851.48,279.398C3855.37,283.293 3859.99,285.241 3865.33,285.241Z" style="fill:white;fill-rule:nonzero;"/>
                </g>
                <g transform="matrix(1.79676,-2.76311e-17,8.28933e-17,1.79676,-6760.74,1222.93)">
                    <path d="M4006.7,236.863L4006.7,245.934L3976.22,245.934L3976.22,261.052L4003.6,261.052L4003.6,269.633L3976.22,269.633L3976.22,284.914L4007.68,284.914L4007.68,293.985L3966.58,293.985L3966.58,236.863L4006.7,236.863Z" style="fill:white;fill-rule:nonzero;"/>
                </g>
                <g transform="matrix(1.79676,-2.76311e-17,8.28933e-17,1.79676,-6760.74,1222.93)">
                    <rect x="4020.02" y="236.863" width="9.643" height="57.121" style="fill:white;fill-rule:nonzero;"/>
                </g>
                <g transform="matrix(1.79676,-2.76311e-17,8.28933e-17,1.79676,-6760.74,1222.93)">
                    <path d="M4091.12,255.414C4091.12,264.838 4087,270.777 4078.78,273.228L4093.73,293.985L4081.47,293.985L4067.83,274.781L4055.16,274.781L4055.16,293.985L4045.52,293.985L4045.52,236.863L4066.76,236.863C4075.48,236.863 4081.72,238.334 4085.48,241.276C4089.24,244.218 4091.12,248.931 4091.12,255.414ZM4067.17,266.037C4072.62,266.037 4076.32,265.193 4078.29,263.504C4080.25,261.815 4081.23,259.105 4081.23,255.373C4081.23,251.641 4080.22,249.08 4078.2,247.691C4076.19,246.302 4072.59,245.607 4067.42,245.607L4055.16,245.607L4055.16,266.037L4067.17,266.037Z" style="fill:white;fill-rule:nonzero;"/>
                </g>
                <g transform="matrix(1.79676,-2.76311e-17,8.28933e-17,1.79676,-6760.74,1222.93)">
                    <path d="M4145.13,236.863L4145.13,245.934L4114.65,245.934L4114.65,261.052L4142.03,261.052L4142.03,269.633L4114.65,269.633L4114.65,284.914L4146.11,284.914L4146.11,293.985L4105.01,293.985L4105.01,236.863L4145.13,236.863Z" style="fill:white;fill-rule:nonzero;"/>
                </g>
                <g transform="matrix(0.173377,0,5.18083e-18,0.173377,-684.571,1456.24)">
                    <g transform="matrix(382.35,0,0,382.35,4145.31,1003.81)">
                        <path d="M0.125,-0.389C0.082,-0.31 0.04,-0.226 0.019,-0.176C-0.029,-0.061 0.024,0.013 0.09,0.015C0.17,0.018 0.236,-0.07 0.249,-0.099C0.259,-0.122 0.264,-0.14 0.259,-0.156C0.255,-0.17 0.244,-0.168 0.238,-0.156C0.201,-0.081 0.144,-0.01 0.099,-0.012C0.057,-0.014 0.046,-0.076 0.079,-0.149C0.117,-0.233 0.174,-0.33 0.213,-0.397C0.238,-0.401 0.269,-0.404 0.291,-0.401C0.306,-0.401 0.31,-0.408 0.303,-0.42C0.295,-0.433 0.28,-0.451 0.241,-0.45C0.265,-0.502 0.265,-0.535 0.254,-0.563C0.249,-0.575 0.239,-0.576 0.23,-0.563C0.213,-0.541 0.185,-0.494 0.154,-0.439C0.127,-0.436 0.099,-0.434 0.071,-0.435C0.056,-0.436 0.05,-0.429 0.06,-0.415C0.068,-0.404 0.091,-0.389 0.125,-0.389Z" style="fill:white;fill-rule:nonzero;"/>
                    </g>
                    <g transform="matrix(382.35,0,0,382.35,4219.48,1003.81)">
                        <path d="M0.092,-0.171C0.162,-0.114 0.229,-0.14 0.278,-0.2C0.32,-0.251 0.328,-0.312 0.31,-0.336C0.294,-0.358 0.276,-0.373 0.251,-0.388C0.201,-0.417 0.099,-0.365 0.034,-0.236C-0.031,-0.107 0.013,0.018 0.14,0.016C0.217,0.015 0.294,-0.031 0.336,-0.092C0.354,-0.118 0.357,-0.146 0.353,-0.154C0.349,-0.163 0.341,-0.163 0.336,-0.155C0.293,-0.089 0.22,-0.009 0.137,-0.013C0.084,-0.016 0.06,-0.079 0.092,-0.171ZM0.101,-0.193C0.103,-0.198 0.106,-0.204 0.109,-0.21C0.156,-0.305 0.239,-0.365 0.26,-0.348C0.274,-0.337 0.252,-0.285 0.22,-0.243C0.191,-0.205 0.15,-0.162 0.101,-0.193Z" style="fill:white;fill-rule:nonzero;"/>
                    </g>
                    <g transform="matrix(382.35,0,0,382.35,4341.84,1003.81)">
                        <path d="M0.324,-0.325C0.326,-0.364 0.306,-0.397 0.263,-0.397C0.213,-0.397 0.134,-0.352 0.053,-0.234C-0.03,-0.113 -0.011,0.014 0.082,0.014C0.13,0.014 0.175,-0.023 0.207,-0.064C0.207,-0.017 0.235,0.015 0.289,0.018C0.344,0.021 0.407,-0.034 0.433,-0.089C0.446,-0.117 0.446,-0.142 0.442,-0.151C0.438,-0.16 0.431,-0.159 0.426,-0.15C0.391,-0.081 0.336,-0.013 0.295,-0.011C0.261,-0.009 0.262,-0.052 0.287,-0.108C0.311,-0.161 0.361,-0.236 0.383,-0.281C0.407,-0.331 0.399,-0.374 0.384,-0.392C0.377,-0.401 0.369,-0.399 0.36,-0.386C0.349,-0.37 0.337,-0.349 0.324,-0.325ZM0.237,-0.17C0.186,-0.082 0.134,-0.018 0.093,-0.019C0.054,-0.02 0.067,-0.108 0.12,-0.194C0.175,-0.283 0.248,-0.348 0.28,-0.345C0.309,-0.342 0.3,-0.28 0.237,-0.17Z" style="fill:white;fill-rule:nonzero;"/>
                    </g>
                    <g transform="matrix(382.35,0,0,382.35,4497.45,1003.81)">
                        <path d="M0.158,-0.284C0.173,-0.324 0.176,-0.363 0.159,-0.391C0.153,-0.401 0.145,-0.402 0.138,-0.391C0.075,-0.297 0.002,-0.156 -0.019,-0.093C-0.036,-0.042 -0.031,-0.009 -0.009,0.01C0,0.018 0.006,0.014 0.01,0.005C0.05,-0.089 0.098,-0.182 0.157,-0.246C0.221,-0.316 0.27,-0.343 0.282,-0.338C0.302,-0.331 0.194,-0.193 0.161,-0.11C0.132,-0.038 0.146,0.001 0.163,0.016C0.172,0.026 0.18,0.023 0.186,0.011C0.228,-0.083 0.277,-0.179 0.36,-0.262C0.425,-0.327 0.459,-0.338 0.467,-0.335C0.482,-0.33 0.393,-0.218 0.356,-0.135C0.319,-0.053 0.351,0.016 0.438,0.016C0.496,0.016 0.56,-0.034 0.588,-0.091C0.599,-0.114 0.602,-0.147 0.597,-0.154C0.592,-0.161 0.584,-0.161 0.579,-0.152C0.54,-0.082 0.495,-0.016 0.454,-0.015C0.418,-0.014 0.404,-0.06 0.432,-0.117C0.457,-0.167 0.506,-0.233 0.524,-0.278C0.544,-0.328 0.536,-0.387 0.5,-0.388C0.467,-0.389 0.4,-0.342 0.352,-0.295C0.365,-0.339 0.347,-0.392 0.313,-0.393C0.277,-0.394 0.202,-0.335 0.158,-0.284Z" style="fill:white;fill-rule:nonzero;"/>
                    </g>
                </g>
                <g transform="matrix(1.99103,0,0,1.99103,2393.88,-4126.07)">
                    <g transform="matrix(1.14442,0,2.77556e-17,1.14442,-1065,2955.64)">
                        <path d="M11.706,10.008C11.927,10.037 11.952,10.096 12.012,10.167C12.154,10.337 12.144,10.615 11.985,10.774C11.92,10.839 11.836,10.883 11.745,10.899C11.711,10.905 11.702,10.904 11.667,10.906L2.732,10.906C2.697,10.904 2.688,10.905 2.654,10.899C2.261,10.83 2.153,10.101 2.654,10.013C2.688,10.007 2.697,10.008 2.732,10.006L11.667,10.006C11.68,10.007 11.693,10.007 11.706,10.008Z" style="fill:white;fill-rule:nonzero;"/>
                    </g>
                    <g transform="matrix(1.14442,0,2.77556e-17,1.14442,-1065,2955.64)">
                        <path d="M9.459,12.726C9.851,12.763 10.029,13.391 9.623,13.582C9.566,13.609 9.535,13.622 9.431,13.625L4.967,13.625C4.863,13.622 4.832,13.609 4.775,13.582C4.497,13.451 4.438,13.003 4.702,12.811C4.756,12.772 4.818,12.745 4.883,12.733C4.91,12.728 4.939,12.726 4.967,12.725L9.431,12.725C9.44,12.725 9.45,12.726 9.459,12.726Z" style="fill:white;fill-rule:nonzero;"/>
                    </g>
                    <path id="connector1pin" d="M-1057.16,2882.5L-1064.46,2882.5C-1064.88,2882.48 -1065.13,2881.92 -1064.81,2881.61C-1064.72,2881.53 -1064.66,2881.48 -1064.46,2881.47L-1049.01,2881.47C-1048.99,2881.47 -1048.97,2881.47 -1048.95,2881.47C-1048.56,2881.54 -1048.34,2882.07 -1048.65,2882.36C-1048.74,2882.44 -1048.8,2882.49 -1049.01,2882.5L-1056.3,2882.5L-1056.3,2890.07L-1040.27,2890.07L-1040.27,2890.07C-1040.26,2890.07 -1040.24,2890.07 -1040.22,2890.07C-1040.19,2890.07 -1040.16,2890.08 -1040.13,2890.09L-1040.12,2890.1C-1040.12,2890.1 -1040.11,2890.1 -1040.11,2890.11C-1040.03,2890.14 -1039.96,2890.21 -1039.92,2890.28C-1039.92,2890.29 -1039.91,2890.3 -1039.9,2890.31L-1039.9,2890.34C-1039.88,2890.38 -1039.88,2890.42 -1039.87,2890.46L-1039.87,2898.46L-1034.18,2901.3L-1034.18,2898.14L-1031.71,2898.14L-1031.71,2906.53L-1025.57,2906.53C-1025.56,2906.53 -1025.55,2906.53 -1025.54,2906.53C-1025.42,2906.55 -1025.39,2906.57 -1025.34,2906.61C-1025.14,2906.74 -1025.11,2907.06 -1025.28,2907.24C-1025.36,2907.31 -1025.41,2907.35 -1025.57,2907.36L-1031.71,2907.36L-1031.71,2914.62L-1034.18,2914.62L-1034.18,2912.59L-1036.64,2913.82L-1036,2915.11C-1035.95,2915.22 -1036.03,2915.35 -1036.15,2915.36C-1037.39,2915.36 -1038.63,2915.41 -1039.87,2915.37L-1039.87,2923.42L-1039.87,2923.42L-1039.87,2931.42L-1034.21,2934.25L-1034.21,2930.41L-1031.74,2930.41L-1031.74,2939.49L-1025.57,2939.49L-1025.54,2939.49C-1025.34,2939.52 -1025.31,2939.57 -1025.26,2939.64C-1025.07,2939.86 -1025.21,2940.26 -1025.5,2940.31C-1025.53,2940.32 -1025.54,2940.31 -1025.57,2940.32L-1031.74,2940.32L-1031.74,2946.89L-1034.21,2946.89L-1034.21,2945.56L-1036.64,2946.78L-1036,2948.07C-1035.95,2948.18 -1036.03,2948.31 -1036.15,2948.32L-1039.87,2948.32L-1039.87,2956.38C-1039.88,2956.63 -1039.99,2956.69 -1040.08,2956.74C-1040.14,2956.77 -1040.21,2956.78 -1040.27,2956.78L-1040.27,2956.78L-1056.33,2956.78L-1056.33,2963.95L-1049.09,2963.95C-1049.07,2963.95 -1049.05,2963.96 -1049.03,2963.96C-1048.83,2963.99 -1048.78,2964.04 -1048.69,2964.14C-1048.45,2964.43 -1048.66,2964.96 -1049.09,2964.98L-1064.42,2964.98C-1064.63,2964.97 -1064.69,2964.93 -1064.78,2964.84C-1065.06,2964.57 -1064.89,2963.98 -1064.42,2963.95L-1057.17,2963.95L-1057.17,2956.78L-1073.17,2956.78C-1073.24,2956.79 -1073.31,2956.78 -1073.37,2956.75L-1073.39,2956.75L-1073.41,2956.73C-1073.43,2956.72 -1073.46,2956.7 -1073.48,2956.68L-1073.52,2956.66L-1073.54,2956.62C-1073.56,2956.6 -1073.57,2956.58 -1073.59,2956.55L-1073.6,2956.53L-1073.61,2956.51C-1073.62,2956.47 -1073.63,2956.43 -1073.63,2956.38L-1073.63,2948.32L-1077.35,2948.32C-1077.35,2948.32 -1077.58,2948.24 -1077.51,2948.07L-1076.86,2946.78L-1079.17,2945.62L-1079.17,2947.58L-1081.64,2947.58L-1081.64,2940.32L-1089.09,2940.32C-1089.34,2940.3 -1089.4,2940.2 -1089.45,2940.11C-1089.58,2939.88 -1089.44,2939.55 -1089.16,2939.5C-1089.13,2939.49 -1089.13,2939.49 -1089.09,2939.49L-1081.64,2939.49L-1081.64,2931.1L-1079.17,2931.1L-1079.17,2934.18L-1073.63,2931.42L-1073.63,2923.42L-1073.63,2923.42L-1073.63,2915.36L-1077.35,2915.36C-1077.35,2915.36 -1077.58,2915.28 -1077.51,2915.11L-1076.86,2913.82L-1079.17,2912.66L-1079.17,2914.62L-1081.64,2914.62L-1081.64,2907.36L-1089.09,2907.36C-1089.21,2907.35 -1089.24,2907.33 -1089.3,2907.3C-1089.52,2907.18 -1089.57,2906.84 -1089.38,2906.65C-1089.31,2906.58 -1089.26,2906.54 -1089.09,2906.53L-1081.64,2906.53L-1081.64,2898.14L-1079.17,2898.14L-1079.17,2901.22L-1073.63,2898.46L-1073.63,2890.46C-1073.63,2890.42 -1073.62,2890.38 -1073.61,2890.34C-1073.61,2890.33 -1073.61,2890.32 -1073.6,2890.31L-1073.58,2890.28C-1073.57,2890.26 -1073.56,2890.24 -1073.55,2890.23L-1073.52,2890.18L-1073.47,2890.15C-1073.45,2890.14 -1073.44,2890.13 -1073.43,2890.12L-1073.39,2890.1L-1073.36,2890.09C-1073.32,2890.08 -1073.28,2890.07 -1073.24,2890.07L-1073.23,2890.07L-1057.16,2890.07L-1057.16,2882.5ZM-1040.67,2890.87L-1056.59,2890.87C-1056.68,2890.9 -1056.8,2890.9 -1056.89,2890.87L-1072.83,2890.87L-1072.83,2898.7C-1072.84,2898.96 -1072.96,2899.02 -1073.07,2899.07L-1079.17,2902.12L-1079.17,2911.77L-1076.5,2913.1L-1075.86,2911.81C-1075.83,2911.75 -1075.8,2911.72 -1075.7,2911.72C-1075.62,2911.72 -1075.62,2911.73 -1075.57,2911.78C-1074.81,2912.79 -1074.02,2913.76 -1073.3,2914.79C-1073.26,2914.78 -1073.22,2914.78 -1073.18,2914.79C-1072.99,2914.82 -1072.84,2914.98 -1072.83,2915.18L-1072.83,2923.42L-1072.83,2923.42L-1072.83,2931.66C-1072.85,2931.96 -1072.98,2932.03 -1073.11,2932.05L-1079.17,2935.08L-1079.17,2944.73L-1076.5,2946.06L-1075.86,2944.77C-1075.83,2944.71 -1075.8,2944.68 -1075.7,2944.68C-1075.62,2944.68 -1075.62,2944.69 -1075.57,2944.74C-1074.81,2945.75 -1074.02,2946.72 -1073.3,2947.75C-1073.26,2947.74 -1073.22,2947.74 -1073.18,2947.75C-1072.99,2947.78 -1072.84,2947.94 -1072.83,2948.14L-1072.83,2955.98L-1040.67,2955.98L-1040.67,2948.14C-1040.66,2947.91 -1040.46,2947.72 -1040.22,2947.75C-1040.21,2947.75 -1040.2,2947.75 -1040.19,2947.75L-1037.94,2944.74C-1037.88,2944.68 -1037.87,2944.67 -1037.78,2944.68C-1037.69,2944.69 -1037.69,2944.7 -1037.65,2944.77L-1037,2946.06L-1034.21,2944.66L-1034.21,2935.14L-1040.45,2932.02C-1040.64,2931.92 -1040.63,2931.86 -1040.66,2931.78C-1040.66,2931.75 -1040.67,2931.73 -1040.67,2931.7C-1040.67,2931.69 -1040.67,2931.68 -1040.67,2931.66L-1040.67,2923.42L-1040.67,2923.42L-1040.67,2915.18C-1040.66,2914.95 -1040.46,2914.76 -1040.22,2914.79C-1040.21,2914.79 -1040.2,2914.79 -1040.19,2914.79L-1037.94,2911.78C-1037.94,2911.78 -1037.88,2911.71 -1037.78,2911.72C-1037.69,2911.73 -1037.69,2911.74 -1037.65,2911.81L-1037,2913.1L-1034.18,2911.69L-1034.18,2902.2L-1040.45,2899.06C-1040.64,2898.96 -1040.63,2898.9 -1040.66,2898.82C-1040.66,2898.8 -1040.67,2898.77 -1040.67,2898.74C-1040.67,2898.73 -1040.67,2898.72 -1040.67,2898.7L-1040.67,2890.87Z" style="fill:white;fill-rule:nonzero;"/>
                </g>
            </g>
        </g>
    </g>
</svg>
