<?xml version="1.0" encoding="UTF-8" standalone="no"?>
<!DOCTYPE svg PUBLIC "-//W3C//DTD SVG 1.1//EN" "http://www.w3.org/Graphics/SVG/1.1/DTD/svg11.dtd">
<svg width="100%" height="100%" viewBox="0 0 692 608" version="1.1" xmlns="http://www.w3.org/2000/svg" xmlns:xlink="http://www.w3.org/1999/xlink" xml:space="preserve" xmlns:serif="http://www.serif.com/" style="fill-rule:evenodd;clip-rule:evenodd;stroke-linejoin:round;stroke-miterlimit:2;">
    <g transform="matrix(1,0,0,1,-13,-3735)">
        <g id="Artboard10" transform="matrix(1,0,0,1,-0.508765,-0.910406)">
            <rect x="13.509" y="3735.91" width="691.974" height="607.544" style="fill:none;"/>
            <g transform="matrix(0.669967,0,0,0.669967,-885.587,3115.2)">
                <g transform="matrix(1.09785,-0.0585548,0.0457781,0.858299,-292.371,307.509)">
                    <path d="M2276.12,1098.71C2276.12,1053.65 2247.57,1017.13 2212.34,1017.13L1609,1017.13C1573.78,1017.13 1545.22,1053.65 1545.22,1098.71C1545.22,1239.34 1545.22,1525.82 1545.22,1666.45C1545.22,1711.51 1573.78,1748.03 1609,1748.03L2212.34,1748.03C2247.57,1748.03 2276.12,1711.51 2276.12,1666.45C2276.12,1525.82 2276.12,1239.34 2276.12,1098.71Z" style="fill:rgb(34,43,50);"/>
                </g>
                <g transform="matrix(0.575961,0,0,0.575961,1071.51,836.191)">
                    <path d="M1363.25,673.446L1363.25,806.134L1666.68,716.743L1363.25,673.446Z" style="fill:rgb(191,191,191);"/>
                    <path d="M851.725,755.544L1363.25,673.446L1363.25,806.134L1158.87,866.347L851.725,755.544Z" style="fill:rgb(102,102,102);"/>
                    <g transform="matrix(1,0,0,1,-531.219,375.27)">
                        <path d="M2214.98,336.44L2197.9,341.473L1894.47,298.176C1726.63,324.458 1558.78,352.679 1390.94,379.021L1382.94,380.274L1368.68,375.128L1894.4,292.807L2214.98,336.44Z" style="fill:rgb(147,147,144);fill-opacity:0.88;"/>
                    </g>
                    <g transform="matrix(1.29661,0,0,1.29661,-379.319,-102.754)">
                        <circle cx="1069.13" cy="673.027" r="117.007" style="fill:url(#_Radial1);"/>
                    </g>
                    <g transform="matrix(0.923844,0.317269,-0.317269,0.923844,518.565,-372.52)">
                        <circle cx="1069.13" cy="673.027" r="117.007" style="fill:url(#_Radial2);"/>
                    </g>
                    <g transform="matrix(2.41598,0,0,2.41598,-1195.93,-806.158)">
                        <circle cx="1069.13" cy="673.027" r="117.007" style="fill:url(#_Radial3);"/>
                    </g>
                    <g transform="matrix(1.01276,0,0,1.01276,363.235,110.329)">
                        <circle cx="1069.13" cy="673.027" r="117.007" style="fill:url(#_Radial4);"/>
                    </g>
                    <g transform="matrix(0.577303,0,0,0.577303,984.916,350.045)">
                        <circle cx="1069.13" cy="673.027" r="117.007" style="fill:url(#_Radial5);"/>
                    </g>
                    <g transform="matrix(2.03732,0,0,2.03732,-970.538,-574.074)">
                        <circle cx="1069.13" cy="673.027" r="117.007" style="fill:url(#_Radial6);"/>
                    </g>
                    <g transform="matrix(0.908824,0.266952,-0.266952,0.908824,684.081,-145.958)">
                        <circle cx="1069.13" cy="673.027" r="117.007" style="fill:url(#_Radial7);"/>
                    </g>
                    <g transform="matrix(1.07611,0,0,1.07611,-52.9998,355.67)">
                        <circle cx="1069.13" cy="673.027" r="117.007" style="fill:url(#_Radial8);"/>
                    </g>
                    <g transform="matrix(0.732743,0,0,0.732743,234.286,456.591)">
                        <circle cx="1069.13" cy="673.027" r="117.007" style="fill:url(#_Radial9);"/>
                    </g>
                    <g transform="matrix(0.554691,0,0,0.554691,345.48,655.591)">
                        <circle cx="1069.13" cy="673.027" r="117.007" style="fill:url(#_Radial10);"/>
                    </g>
                    <path d="M1701.41,991.048L1701.41,714.112L1158.64,874.016L1158.64,1356.85L1701.41,991.048Z" style="fill:rgb(210,210,203);fill-opacity:0.88;"/>
                    <path d="M822.475,1078.28L822.475,752.744L1158.64,874.016L1158.64,1354.89L822.475,1078.28Z" style="fill:rgb(242,241,233);fill-opacity:0.88;"/>
                    <g transform="matrix(0.799281,0,0,0.799281,885.049,429.6)">
                        <circle cx="1069.13" cy="673.027" r="117.007" style="fill:url(#_Radial11);"/>
                    </g>
                    <g transform="matrix(0.399641,0,0,0.399641,1375.31,792.091)">
                        <circle cx="1069.13" cy="673.027" r="117.007" style="fill:url(#_Radial12);"/>
                    </g>
                    <g transform="matrix(1,0,0,1,593.924,404.59)">
                        <path d="M1107.49,309.522L564.715,469.426L228.551,348.154L243.535,345.808L564.944,461.757L1064.64,314.545L1089.84,307.12L1107.49,309.522Z" style="fill:rgb(147,147,144);fill-opacity:0.88;"/>
                    </g>
                    <g transform="matrix(1,0,0,1,649.458,-152.163)">
                        <g transform="matrix(130.561,0,0,130.561,636.368,1509.02)">
                            <path d="M0.362,-0.238C0.351,-0.242 0.339,-0.237 0.334,-0.227C0.278,-0.098 0.214,-0.04 0.132,-0.042C0.072,-0.044 0.04,-0.079 0.042,-0.136C0.043,-0.157 0.046,-0.176 0.053,-0.202C0.164,-0.229 0.313,-0.293 0.313,-0.399C0.313,-0.447 0.278,-0.473 0.228,-0.473C0.11,-0.473 0.006,-0.265 0,-0.137C-0.002,-0.055 0.048,0 0.131,0C0.232,0 0.308,-0.066 0.373,-0.21C0.374,-0.213 0.375,-0.215 0.375,-0.218C0.375,-0.226 0.37,-0.234 0.362,-0.238ZM0.069,-0.25C0.101,-0.327 0.159,-0.431 0.228,-0.431C0.25,-0.431 0.271,-0.426 0.271,-0.399C0.271,-0.325 0.152,-0.276 0.069,-0.25Z" style="fill:rgb(0,178,230);fill-rule:nonzero;"/>
                        </g>
                        <g transform="matrix(130.561,0,0,130.561,677.756,1509.02)">
                            <path d="M0.362,-0.238C0.351,-0.242 0.339,-0.237 0.334,-0.227C0.278,-0.098 0.214,-0.04 0.132,-0.042C0.072,-0.044 0.04,-0.079 0.042,-0.136C0.043,-0.157 0.046,-0.176 0.053,-0.202C0.164,-0.229 0.313,-0.293 0.313,-0.399C0.313,-0.447 0.278,-0.473 0.228,-0.473C0.11,-0.473 0.006,-0.265 0,-0.137C-0.002,-0.055 0.048,0 0.131,0C0.232,0 0.308,-0.066 0.373,-0.21C0.374,-0.213 0.375,-0.215 0.375,-0.218C0.375,-0.226 0.37,-0.234 0.362,-0.238ZM0.069,-0.25C0.101,-0.327 0.159,-0.431 0.228,-0.431C0.25,-0.431 0.271,-0.426 0.271,-0.399C0.271,-0.325 0.152,-0.276 0.069,-0.25Z" style="fill:rgb(0,178,230);fill-rule:nonzero;"/>
                        </g>
                        <g transform="matrix(130.561,0,0,130.561,719.144,1509.02)">
                            <path d="M0.444,-0.238C0.441,-0.239 0.438,-0.24 0.435,-0.24C0.427,-0.24 0.42,-0.235 0.416,-0.227C0.355,-0.095 0.319,-0.042 0.272,-0.042C0.251,-0.042 0.242,-0.055 0.242,-0.084C0.242,-0.161 0.32,-0.292 0.32,-0.381C0.32,-0.434 0.298,-0.475 0.226,-0.475C0.193,-0.475 0.162,-0.456 0.133,-0.426L0.141,-0.446C0.146,-0.459 0.136,-0.474 0.121,-0.474C0.112,-0.474 0.104,-0.469 0.101,-0.46C0.062,-0.353 -0.001,-0.172 -0.053,-0.028C-0.057,-0.016 -0.051,-0.005 -0.04,-0.001C-0.029,0.002 -0.017,-0.003 -0.013,-0.015L0.057,-0.213C0.089,-0.298 0.165,-0.433 0.226,-0.433C0.265,-0.433 0.278,-0.41 0.278,-0.381C0.278,-0.294 0.2,-0.178 0.2,-0.084C0.2,-0.035 0.224,0 0.272,0C0.34,0 0.387,-0.059 0.455,-0.21C0.456,-0.213 0.457,-0.216 0.457,-0.219C0.457,-0.227 0.452,-0.234 0.444,-0.238Z" style="fill:rgb(0,178,230);fill-rule:nonzero;"/>
                        </g>
                        <g transform="matrix(130.561,0,0,130.561,810.406,1509.02)">
                            <path d="M0.163,-0.524C0.182,-0.524 0.197,-0.539 0.197,-0.558C0.197,-0.577 0.182,-0.592 0.163,-0.592C0.144,-0.592 0.128,-0.577 0.128,-0.558C0.128,-0.539 0.144,-0.524 0.163,-0.524ZM0.229,-0.238C0.226,-0.239 0.224,-0.24 0.221,-0.24C0.213,-0.24 0.205,-0.235 0.201,-0.227C0.164,-0.145 0.118,-0.042 0.056,-0.042C0.035,-0.042 0.026,-0.055 0.026,-0.084C0.026,-0.127 0.044,-0.173 0.141,-0.446C0.147,-0.463 0.134,-0.473 0.121,-0.473C0.113,-0.473 0.105,-0.468 0.102,-0.459C0.058,-0.345 -0.013,-0.162 -0.016,-0.084C-0.018,-0.038 0.008,0 0.056,0C0.14,0 0.192,-0.102 0.24,-0.21C0.241,-0.213 0.242,-0.216 0.242,-0.219C0.242,-0.227 0.237,-0.235 0.229,-0.238Z" style="fill:rgb(0,178,230);fill-rule:nonzero;"/>
                        </g>
                        <g transform="matrix(130.561,0,0,130.561,834.429,1509.02)">
                            <path d="M0.475,-0.238C0.472,-0.239 0.469,-0.24 0.467,-0.24C0.459,-0.24 0.451,-0.235 0.447,-0.228C0.4,-0.125 0.352,-0.042 0.28,-0.042C0.257,-0.042 0.248,-0.06 0.248,-0.084C0.248,-0.11 0.266,-0.169 0.281,-0.215C0.29,-0.243 0.409,-0.583 0.419,-0.612C0.423,-0.623 0.416,-0.64 0.399,-0.64C0.391,-0.64 0.383,-0.635 0.38,-0.627L0.327,-0.474L0.308,-0.422C0.292,-0.453 0.263,-0.473 0.218,-0.473C0.097,-0.473 -0.003,-0.239 -0.003,-0.108C-0.003,-0.048 0.023,0 0.079,0C0.13,0 0.171,-0.038 0.206,-0.088C0.206,-0.032 0.233,0 0.28,0C0.372,0 0.428,-0.085 0.486,-0.21C0.487,-0.213 0.488,-0.216 0.488,-0.219C0.488,-0.227 0.483,-0.234 0.475,-0.238ZM0.078,-0.042C0.048,-0.042 0.039,-0.071 0.039,-0.115C0.041,-0.214 0.126,-0.428 0.218,-0.431C0.257,-0.431 0.28,-0.404 0.282,-0.358C0.282,-0.356 0.282,-0.354 0.281,-0.351C0.274,-0.335 0.267,-0.315 0.258,-0.294C0.218,-0.192 0.159,-0.042 0.078,-0.042Z" style="fill:rgb(0,178,230);fill-rule:nonzero;"/>
                        </g>
                        <g transform="matrix(130.561,0,0,130.561,890.57,1509.02)">
                            <path d="M0.362,-0.238C0.351,-0.242 0.339,-0.237 0.334,-0.227C0.278,-0.098 0.214,-0.04 0.132,-0.042C0.072,-0.044 0.04,-0.079 0.042,-0.136C0.043,-0.157 0.046,-0.176 0.053,-0.202C0.164,-0.229 0.313,-0.293 0.313,-0.399C0.313,-0.447 0.278,-0.473 0.228,-0.473C0.11,-0.473 0.006,-0.265 0,-0.137C-0.002,-0.055 0.048,0 0.131,0C0.232,0 0.308,-0.066 0.373,-0.21C0.374,-0.213 0.375,-0.215 0.375,-0.218C0.375,-0.226 0.37,-0.234 0.362,-0.238ZM0.069,-0.25C0.101,-0.327 0.159,-0.431 0.228,-0.431C0.25,-0.431 0.271,-0.426 0.271,-0.399C0.271,-0.325 0.152,-0.276 0.069,-0.25Z" style="fill:rgb(0,178,230);fill-rule:nonzero;"/>
                        </g>
                        <g transform="matrix(130.561,0,0,130.561,931.958,1509.02)">
                            <path d="M0.362,-0.238C0.351,-0.242 0.339,-0.237 0.334,-0.227C0.278,-0.098 0.214,-0.04 0.132,-0.042C0.072,-0.044 0.04,-0.079 0.042,-0.136C0.043,-0.157 0.046,-0.176 0.053,-0.202C0.164,-0.229 0.313,-0.293 0.313,-0.399C0.313,-0.447 0.278,-0.473 0.228,-0.473C0.11,-0.473 0.006,-0.265 0,-0.137C-0.002,-0.055 0.048,0 0.131,0C0.232,0 0.308,-0.066 0.373,-0.21C0.374,-0.213 0.375,-0.215 0.375,-0.218C0.375,-0.226 0.37,-0.234 0.362,-0.238ZM0.069,-0.25C0.101,-0.327 0.159,-0.431 0.228,-0.431C0.25,-0.431 0.271,-0.426 0.271,-0.399C0.271,-0.325 0.152,-0.276 0.069,-0.25Z" style="fill:rgb(0,178,230);fill-rule:nonzero;"/>
                        </g>
                        <g transform="matrix(130.561,0,0,130.561,973.346,1509.02)">
                            <path d="M0.202,-0.602C0.183,-0.602 0.168,-0.586 0.168,-0.567C0.168,-0.548 0.183,-0.533 0.202,-0.533C0.221,-0.533 0.237,-0.548 0.237,-0.567C0.237,-0.586 0.221,-0.602 0.202,-0.602ZM0.312,-0.602C0.293,-0.602 0.278,-0.586 0.278,-0.567C0.278,-0.548 0.293,-0.533 0.312,-0.533C0.331,-0.533 0.347,-0.548 0.347,-0.567C0.347,-0.586 0.331,-0.602 0.312,-0.602ZM0.362,-0.238C0.351,-0.242 0.339,-0.237 0.334,-0.227C0.278,-0.098 0.214,-0.04 0.132,-0.042C0.072,-0.044 0.04,-0.079 0.042,-0.136C0.043,-0.157 0.046,-0.176 0.053,-0.202C0.164,-0.229 0.313,-0.293 0.313,-0.399C0.313,-0.447 0.278,-0.473 0.228,-0.473C0.11,-0.473 0.006,-0.265 0,-0.137C-0.002,-0.055 0.048,0 0.131,0C0.232,0 0.308,-0.066 0.373,-0.21C0.374,-0.213 0.375,-0.215 0.375,-0.218C0.375,-0.226 0.37,-0.234 0.362,-0.238ZM0.069,-0.25C0.101,-0.327 0.159,-0.431 0.228,-0.431C0.25,-0.431 0.271,-0.426 0.271,-0.399C0.271,-0.325 0.152,-0.276 0.069,-0.25Z" style="fill:rgb(0,178,230);fill-rule:nonzero;"/>
                        </g>
                        <g transform="matrix(130.561,0,0,130.561,1014.73,1509.02)">
                            <path d="M0.444,-0.238C0.441,-0.239 0.438,-0.24 0.435,-0.24C0.427,-0.24 0.42,-0.235 0.416,-0.227C0.355,-0.095 0.319,-0.042 0.272,-0.042C0.251,-0.042 0.242,-0.055 0.242,-0.084C0.242,-0.161 0.32,-0.292 0.32,-0.381C0.32,-0.434 0.298,-0.475 0.226,-0.475C0.193,-0.475 0.162,-0.456 0.133,-0.426L0.141,-0.446C0.146,-0.459 0.136,-0.474 0.121,-0.474C0.112,-0.474 0.104,-0.469 0.101,-0.46C0.062,-0.353 -0.001,-0.172 -0.053,-0.028C-0.057,-0.016 -0.051,-0.005 -0.04,-0.001C-0.029,0.002 -0.017,-0.003 -0.013,-0.015L0.057,-0.213C0.089,-0.298 0.165,-0.433 0.226,-0.433C0.265,-0.433 0.278,-0.41 0.278,-0.381C0.278,-0.294 0.2,-0.178 0.2,-0.084C0.2,-0.035 0.224,0 0.272,0C0.34,0 0.387,-0.059 0.455,-0.21C0.456,-0.213 0.457,-0.216 0.457,-0.219C0.457,-0.227 0.452,-0.234 0.444,-0.238Z" style="fill:rgb(0,178,230);fill-rule:nonzero;"/>
                        </g>
                        <g transform="matrix(130.561,0,0,130.561,1066.83,1509.02)">
                            <path d="M0.254,-0.238C0.251,-0.239 0.248,-0.24 0.245,-0.24C0.237,-0.24 0.229,-0.235 0.225,-0.228C0.178,-0.125 0.13,-0.042 0.058,-0.042C0.038,-0.042 0.026,-0.057 0.026,-0.084C0.026,-0.113 0.039,-0.159 0.08,-0.275C0.113,-0.368 0.13,-0.414 0.136,-0.433L0.218,-0.433C0.23,-0.433 0.239,-0.442 0.239,-0.454C0.239,-0.465 0.23,-0.475 0.218,-0.475L0.151,-0.475C0.158,-0.494 0.201,-0.616 0.198,-0.61C0.203,-0.623 0.193,-0.638 0.178,-0.638C0.169,-0.638 0.161,-0.633 0.158,-0.624C0.157,-0.62 0.108,-0.479 0.106,-0.475L0.029,-0.475C0.017,-0.475 0.008,-0.465 0.008,-0.454C0.008,-0.442 0.017,-0.433 0.029,-0.433L0.092,-0.433L0.041,-0.29C0.009,-0.208 -0.016,-0.121 -0.016,-0.084C-0.016,-0.036 0.01,0 0.058,0C0.15,0 0.206,-0.085 0.264,-0.21C0.265,-0.213 0.266,-0.216 0.266,-0.219C0.266,-0.227 0.261,-0.234 0.254,-0.238Z" style="fill:rgb(0,178,230);fill-rule:nonzero;"/>
                        </g>
                        <g transform="matrix(130.561,0,0,130.561,1093.98,1509.02)">
                            <path d="M0.448,-0.238C0.445,-0.239 0.442,-0.24 0.439,-0.24C0.431,-0.24 0.424,-0.235 0.42,-0.227L0.419,-0.224C0.386,-0.15 0.338,-0.042 0.276,-0.042C0.255,-0.042 0.246,-0.054 0.246,-0.084C0.246,-0.128 0.279,-0.215 0.315,-0.316L0.365,-0.45C0.37,-0.462 0.362,-0.478 0.346,-0.478C0.337,-0.478 0.329,-0.473 0.326,-0.465C0.321,-0.452 0.315,-0.437 0.309,-0.42C0.291,-0.456 0.26,-0.473 0.218,-0.473C0.098,-0.473 -0.003,-0.239 -0.003,-0.108C-0.003,-0.048 0.023,0 0.079,0C0.122,0 0.164,-0.028 0.204,-0.084C0.204,-0.035 0.228,0 0.276,0C0.366,0 0.42,-0.123 0.458,-0.207L0.459,-0.21C0.46,-0.213 0.461,-0.216 0.461,-0.219C0.461,-0.227 0.456,-0.234 0.448,-0.238ZM0.078,-0.042C0.048,-0.042 0.039,-0.071 0.039,-0.115C0.041,-0.214 0.126,-0.429 0.218,-0.431C0.254,-0.431 0.28,-0.404 0.282,-0.358L0.258,-0.294C0.218,-0.192 0.159,-0.042 0.078,-0.042Z" style="fill:rgb(0,178,230);fill-rule:nonzero;"/>
                        </g>
                        <g transform="matrix(130.561,0,0,130.561,1146.6,1509.02)">
                            <path d="M0.444,-0.238C0.441,-0.239 0.438,-0.24 0.435,-0.24C0.427,-0.24 0.42,-0.235 0.416,-0.227C0.355,-0.095 0.319,-0.042 0.272,-0.042C0.251,-0.042 0.242,-0.055 0.242,-0.084C0.242,-0.161 0.32,-0.292 0.32,-0.381C0.32,-0.434 0.298,-0.475 0.226,-0.475C0.193,-0.475 0.162,-0.456 0.133,-0.426L0.141,-0.446C0.146,-0.459 0.136,-0.474 0.121,-0.474C0.112,-0.474 0.104,-0.469 0.101,-0.46C0.062,-0.353 -0.001,-0.172 -0.053,-0.028C-0.057,-0.016 -0.051,-0.005 -0.04,-0.001C-0.029,0.002 -0.017,-0.003 -0.013,-0.015L0.057,-0.213C0.089,-0.298 0.165,-0.433 0.226,-0.433C0.265,-0.433 0.278,-0.41 0.278,-0.381C0.278,-0.294 0.2,-0.178 0.2,-0.084C0.2,-0.035 0.224,0 0.272,0C0.34,0 0.387,-0.059 0.455,-0.21C0.456,-0.213 0.457,-0.216 0.457,-0.219C0.457,-0.227 0.452,-0.234 0.444,-0.238Z" style="fill:rgb(0,178,230);fill-rule:nonzero;"/>
                        </g>
                        <g transform="matrix(130.561,0,0,130.561,1198.69,1509.02)">
                            <path d="M-0.015,-0.015C0.052,-0.196 0.112,-0.367 0.199,-0.612C0.204,-0.625 0.194,-0.64 0.178,-0.64C0.17,-0.64 0.162,-0.635 0.159,-0.627C0.151,-0.604 0.112,-0.493 -0.055,-0.028C-0.059,-0.017 -0.053,-0.005 -0.042,-0.001C-0.031,0.002 -0.019,-0.005 -0.015,-0.015ZM0.44,-0.238C0.437,-0.239 0.434,-0.24 0.431,-0.24C0.423,-0.24 0.416,-0.235 0.412,-0.227C0.374,-0.141 0.326,-0.042 0.267,-0.042C0.246,-0.042 0.235,-0.061 0.235,-0.079C0.235,-0.102 0.246,-0.179 0.246,-0.202C0.245,-0.245 0.232,-0.279 0.185,-0.287L0.352,-0.439C0.356,-0.443 0.359,-0.448 0.359,-0.454C0.359,-0.462 0.352,-0.475 0.337,-0.475C0.332,-0.475 0.329,-0.475 0.323,-0.47C0.19,-0.348 0.098,-0.267 0.085,-0.254C0.07,-0.239 0.075,-0.217 0.097,-0.217C0.116,-0.217 0.131,-0.247 0.16,-0.247C0.194,-0.247 0.203,-0.228 0.204,-0.202C0.205,-0.184 0.202,-0.163 0.199,-0.143C0.196,-0.12 0.193,-0.098 0.193,-0.076C0.193,-0.038 0.221,0 0.267,0C0.35,0 0.403,-0.103 0.451,-0.21C0.452,-0.213 0.453,-0.216 0.453,-0.219C0.453,-0.227 0.448,-0.235 0.44,-0.238Z" style="fill:rgb(0,178,230);fill-rule:nonzero;"/>
                        </g>
                    </g>
                    <g transform="matrix(1,0,0,1,217.084,-17.4645)">
                        <g transform="matrix(112.917,0,0,112.917,990.557,1463.68)">
                            <path d="M0.189,-0.623C0.185,-0.611 0.19,-0.601 0.199,-0.594C0.21,-0.59 0.221,-0.594 0.226,-0.605L0.285,-0.76C0.29,-0.772 0.282,-0.785 0.272,-0.79C0.261,-0.794 0.248,-0.789 0.244,-0.778L0.189,-0.623ZM0.279,-0.623C0.275,-0.611 0.28,-0.601 0.289,-0.594C0.3,-0.59 0.311,-0.594 0.316,-0.605L0.375,-0.76C0.38,-0.772 0.372,-0.785 0.362,-0.79C0.351,-0.794 0.338,-0.789 0.334,-0.778L0.279,-0.623Z" style="fill:rgb(0,178,230);fill-rule:nonzero;"/>
                        </g>
                    </g>
                    <g transform="matrix(1,0,0,1,912.163,-123.481)">
                        <g transform="matrix(112.917,0,0,112.917,990.557,1463.68)">
                            <path d="M0.189,-0.623C0.185,-0.611 0.19,-0.601 0.199,-0.594C0.21,-0.59 0.221,-0.594 0.226,-0.605L0.285,-0.76C0.29,-0.772 0.282,-0.785 0.272,-0.79C0.261,-0.794 0.248,-0.789 0.244,-0.778L0.189,-0.623ZM0.279,-0.623C0.275,-0.611 0.28,-0.601 0.289,-0.594C0.3,-0.59 0.311,-0.594 0.316,-0.605L0.375,-0.76C0.38,-0.772 0.372,-0.785 0.362,-0.79C0.351,-0.794 0.338,-0.789 0.334,-0.778L0.279,-0.623Z" style="fill:rgb(0,178,230);fill-rule:nonzero;"/>
                        </g>
                    </g>
                    <g transform="matrix(0.179808,0,0,0.179808,1423.33,1104.12)">
                        <g transform="matrix(190.615,0,0,190.615,1352.49,1674.77)">
                            <path d="M0.677,-0.415L0.576,-0.415L0.555,-0.29L0.67,-0.29L0.643,-0.152L0.532,-0.152L0.506,0L0.356,0L0.382,-0.152L0.291,-0.152L0.265,0L0.114,0L0.14,-0.152L0.044,-0.152L0.071,-0.29L0.164,-0.29L0.185,-0.415L0.078,-0.415L0.105,-0.553L0.208,-0.553L0.235,-0.715L0.386,-0.715L0.359,-0.553L0.449,-0.553L0.476,-0.715L0.628,-0.715L0.599,-0.553L0.704,-0.553L0.677,-0.415ZM0.427,-0.415L0.336,-0.415L0.314,-0.29L0.405,-0.29C0.414,-0.343 0.421,-0.385 0.427,-0.415Z" style="fill:rgb(99,112,121);fill-rule:nonzero;"/>
                        </g>
                        <g transform="matrix(190.615,0,0,190.615,1494.88,1674.77)">
                            <path d="M0.25,-0.43L0.25,-0.189C0.25,-0.168 0.255,-0.152 0.266,-0.141C0.277,-0.129 0.289,-0.123 0.304,-0.123C0.332,-0.123 0.356,-0.136 0.375,-0.161L0.431,-0.056C0.384,-0.013 0.335,0.008 0.284,0.008C0.232,0.008 0.188,-0.009 0.153,-0.043C0.117,-0.077 0.099,-0.123 0.099,-0.182L0.099,-0.43L0.036,-0.43L0.036,-0.538L0.099,-0.538L0.099,-0.699L0.25,-0.699L0.25,-0.538L0.38,-0.538L0.38,-0.43L0.25,-0.43Z" style="fill:rgb(99,112,121);fill-rule:nonzero;"/>
                        </g>
                        <g transform="matrix(190.615,0,0,190.615,1578.75,1674.77)">
                            <path d="M0.537,-0.078C0.476,-0.021 0.405,0.008 0.324,0.008C0.242,0.008 0.174,-0.017 0.121,-0.068C0.068,-0.118 0.041,-0.185 0.041,-0.27C0.041,-0.355 0.068,-0.422 0.123,-0.472C0.177,-0.522 0.241,-0.547 0.315,-0.547C0.389,-0.547 0.452,-0.525 0.504,-0.48C0.555,-0.435 0.581,-0.374 0.581,-0.296L0.581,-0.216L0.189,-0.216C0.194,-0.187 0.209,-0.163 0.235,-0.144C0.261,-0.125 0.29,-0.116 0.323,-0.116C0.376,-0.116 0.419,-0.134 0.453,-0.169L0.537,-0.078ZM0.429,-0.323C0.426,-0.355 0.414,-0.38 0.393,-0.397C0.372,-0.414 0.347,-0.423 0.318,-0.423C0.288,-0.423 0.261,-0.414 0.236,-0.396C0.211,-0.378 0.197,-0.354 0.193,-0.323L0.429,-0.323Z" style="fill:rgb(99,112,121);fill-rule:nonzero;"/>
                        </g>
                        <g transform="matrix(190.615,0,0,190.615,1696.55,1674.77)">
                            <path d="M0.528,0L0.387,0L0.387,-0.065C0.348,-0.016 0.301,0.008 0.244,0.008C0.187,0.008 0.139,-0.009 0.1,-0.042C0.061,-0.075 0.042,-0.119 0.042,-0.174C0.042,-0.229 0.062,-0.27 0.102,-0.297C0.142,-0.324 0.197,-0.338 0.266,-0.338L0.378,-0.338L0.378,-0.341C0.378,-0.398 0.348,-0.427 0.287,-0.427C0.261,-0.427 0.234,-0.422 0.205,-0.412C0.175,-0.401 0.151,-0.388 0.131,-0.373L0.064,-0.47C0.135,-0.521 0.215,-0.547 0.306,-0.547C0.371,-0.547 0.425,-0.531 0.466,-0.498C0.507,-0.465 0.528,-0.414 0.528,-0.343L0.528,0ZM0.377,-0.205L0.377,-0.231L0.283,-0.231C0.223,-0.231 0.193,-0.212 0.193,-0.175C0.193,-0.156 0.2,-0.141 0.215,-0.131C0.229,-0.12 0.249,-0.115 0.276,-0.115C0.303,-0.115 0.326,-0.123 0.347,-0.14C0.367,-0.156 0.377,-0.178 0.377,-0.205Z" style="fill:rgb(99,112,121);fill-rule:nonzero;"/>
                        </g>
                        <g transform="matrix(190.615,0,0,190.615,1809.78,1674.77)">
                            <path d="M0.565,-0.29L0.565,0L0.414,0L0.414,-0.294C0.414,-0.337 0.408,-0.368 0.395,-0.388C0.382,-0.408 0.361,-0.418 0.332,-0.418C0.303,-0.418 0.277,-0.407 0.255,-0.386C0.232,-0.364 0.221,-0.332 0.221,-0.29L0.221,0L0.071,0L0.071,-0.538L0.221,-0.538L0.221,-0.477C0.262,-0.524 0.31,-0.547 0.363,-0.547C0.397,-0.547 0.428,-0.537 0.456,-0.517C0.483,-0.497 0.504,-0.473 0.518,-0.444C0.539,-0.477 0.567,-0.502 0.602,-0.52C0.636,-0.538 0.672,-0.547 0.707,-0.547C0.77,-0.547 0.821,-0.528 0.86,-0.491C0.899,-0.453 0.918,-0.398 0.918,-0.327L0.918,0L0.767,0L0.767,-0.294C0.767,-0.377 0.737,-0.418 0.676,-0.418C0.646,-0.418 0.62,-0.407 0.598,-0.386C0.576,-0.364 0.565,-0.332 0.565,-0.29Z" style="fill:rgb(99,112,121);fill-rule:nonzero;"/>
                        </g>
                        <g transform="matrix(190.615,0,0,190.615,1997.15,1674.77)">
                            <path d="M0.476,-0.167C0.476,-0.114 0.456,-0.072 0.418,-0.04C0.379,-0.008 0.329,0.008 0.269,0.008C0.229,0.008 0.187,0.001 0.144,-0.014C0.101,-0.028 0.062,-0.049 0.027,-0.077L0.093,-0.171C0.149,-0.128 0.209,-0.106 0.272,-0.106C0.291,-0.106 0.307,-0.11 0.318,-0.118C0.329,-0.125 0.335,-0.135 0.335,-0.148C0.335,-0.161 0.327,-0.172 0.312,-0.183C0.296,-0.194 0.273,-0.204 0.244,-0.213C0.214,-0.222 0.191,-0.23 0.176,-0.237C0.16,-0.244 0.142,-0.253 0.122,-0.266C0.081,-0.291 0.061,-0.329 0.061,-0.379C0.061,-0.428 0.081,-0.469 0.121,-0.5C0.161,-0.531 0.213,-0.547 0.276,-0.547C0.339,-0.547 0.403,-0.526 0.466,-0.483L0.41,-0.383C0.363,-0.415 0.317,-0.431 0.271,-0.431C0.224,-0.431 0.201,-0.418 0.201,-0.393C0.201,-0.379 0.208,-0.368 0.223,-0.36C0.238,-0.352 0.262,-0.343 0.296,-0.332C0.33,-0.321 0.354,-0.313 0.369,-0.308C0.383,-0.302 0.4,-0.293 0.42,-0.281C0.457,-0.258 0.476,-0.22 0.476,-0.167Z" style="fill:rgb(99,112,121);fill-rule:nonzero;"/>
                        </g>
                        <g transform="matrix(190.615,0,0,190.615,2096.27,1674.77)">
                            <path d="M0.329,-0.125C0.379,-0.125 0.424,-0.15 0.464,-0.2L0.553,-0.1C0.484,-0.028 0.409,0.008 0.328,0.008C0.247,0.008 0.179,-0.018 0.124,-0.069C0.068,-0.119 0.04,-0.186 0.04,-0.269C0.04,-0.351 0.068,-0.418 0.125,-0.47C0.181,-0.521 0.248,-0.547 0.325,-0.547C0.364,-0.547 0.403,-0.539 0.443,-0.523C0.482,-0.507 0.517,-0.483 0.547,-0.452L0.469,-0.35C0.452,-0.371 0.431,-0.387 0.406,-0.398C0.381,-0.409 0.356,-0.415 0.331,-0.415C0.292,-0.415 0.258,-0.402 0.23,-0.377C0.201,-0.351 0.187,-0.315 0.187,-0.27C0.187,-0.224 0.201,-0.188 0.23,-0.163C0.258,-0.138 0.291,-0.125 0.329,-0.125Z" style="fill:rgb(99,112,121);fill-rule:nonzero;"/>
                        </g>
                        <g transform="matrix(190.615,0,0,190.615,2207.21,1674.77)">
                            <path d="M0.221,-0.29L0.221,0L0.071,0L0.071,-0.742L0.221,-0.742L0.221,-0.478C0.266,-0.524 0.317,-0.547 0.374,-0.547C0.43,-0.547 0.477,-0.527 0.516,-0.487C0.555,-0.447 0.574,-0.394 0.574,-0.327L0.574,0L0.424,0L0.424,-0.294C0.424,-0.377 0.394,-0.418 0.333,-0.418C0.303,-0.418 0.277,-0.407 0.255,-0.386C0.232,-0.364 0.221,-0.332 0.221,-0.29Z" style="fill:rgb(99,112,121);fill-rule:nonzero;"/>
                        </g>
                        <g transform="matrix(190.615,0,0,190.615,2329.01,1674.77)">
                            <path d="M0.537,-0.078C0.476,-0.021 0.405,0.008 0.324,0.008C0.242,0.008 0.174,-0.017 0.121,-0.068C0.068,-0.118 0.041,-0.185 0.041,-0.27C0.041,-0.355 0.068,-0.422 0.123,-0.472C0.177,-0.522 0.241,-0.547 0.315,-0.547C0.389,-0.547 0.452,-0.525 0.504,-0.48C0.555,-0.435 0.581,-0.374 0.581,-0.296L0.581,-0.216L0.189,-0.216C0.194,-0.187 0.209,-0.163 0.235,-0.144C0.261,-0.125 0.29,-0.116 0.323,-0.116C0.376,-0.116 0.419,-0.134 0.453,-0.169L0.537,-0.078ZM0.429,-0.323C0.426,-0.355 0.414,-0.38 0.393,-0.397C0.372,-0.414 0.347,-0.423 0.318,-0.423C0.288,-0.423 0.261,-0.414 0.236,-0.396C0.211,-0.378 0.197,-0.354 0.193,-0.323L0.429,-0.323Z" style="fill:rgb(99,112,121);fill-rule:nonzero;"/>
                        </g>
                        <g transform="matrix(190.615,0,0,190.615,2446.81,1674.77)">
                            <path d="M0.221,0L0.071,0L0.071,-0.538L0.221,-0.538L0.221,0ZM0.083,-0.606C0.066,-0.623 0.058,-0.644 0.058,-0.669C0.058,-0.694 0.067,-0.715 0.084,-0.732C0.1,-0.748 0.121,-0.757 0.146,-0.757C0.171,-0.757 0.192,-0.748 0.209,-0.732C0.226,-0.715 0.234,-0.694 0.234,-0.669C0.234,-0.644 0.226,-0.624 0.209,-0.607C0.192,-0.59 0.171,-0.581 0.146,-0.581C0.121,-0.581 0.1,-0.589 0.083,-0.606Z" style="fill:rgb(99,112,121);fill-rule:nonzero;"/>
                        </g>
                        <g transform="matrix(190.615,0,0,190.615,2502.47,1674.77)">
                            <path d="M0.354,-0.406C0.309,-0.406 0.276,-0.39 0.254,-0.359C0.232,-0.327 0.221,-0.285 0.221,-0.233L0.221,0L0.071,0L0.071,-0.538L0.221,-0.538L0.221,-0.467C0.24,-0.489 0.265,-0.508 0.294,-0.523C0.323,-0.538 0.352,-0.546 0.382,-0.547L0.383,-0.406L0.354,-0.406Z" style="fill:rgb(99,112,121);fill-rule:nonzero;"/>
                        </g>
                        <g transform="matrix(190.615,0,0,190.615,2580.82,1674.77)">
                            <path d="M0.537,-0.078C0.476,-0.021 0.405,0.008 0.324,0.008C0.242,0.008 0.174,-0.017 0.121,-0.068C0.068,-0.118 0.041,-0.185 0.041,-0.27C0.041,-0.355 0.068,-0.422 0.123,-0.472C0.177,-0.522 0.241,-0.547 0.315,-0.547C0.389,-0.547 0.452,-0.525 0.504,-0.48C0.555,-0.435 0.581,-0.374 0.581,-0.296L0.581,-0.216L0.189,-0.216C0.194,-0.187 0.209,-0.163 0.235,-0.144C0.261,-0.125 0.29,-0.116 0.323,-0.116C0.376,-0.116 0.419,-0.134 0.453,-0.169L0.537,-0.078ZM0.429,-0.323C0.426,-0.355 0.414,-0.38 0.393,-0.397C0.372,-0.414 0.347,-0.423 0.318,-0.423C0.288,-0.423 0.261,-0.414 0.236,-0.396C0.211,-0.378 0.197,-0.354 0.193,-0.323L0.429,-0.323Z" style="fill:rgb(99,112,121);fill-rule:nonzero;"/>
                        </g>
                    </g>
                </g>
            </g>
        </g>
    </g>
    <defs>
        <radialGradient id="_Radial1" cx="0" cy="0" r="1" gradientUnits="userSpaceOnUse" gradientTransform="matrix(142.622,100.29,-100.29,142.622,1004.07,617.083)"><stop offset="0" style="stop-color:white;stop-opacity:0.9"/><stop offset="0.5" style="stop-color:rgb(0,176,200);stop-opacity:0.9"/><stop offset="0.77" style="stop-color:rgb(9,159,193);stop-opacity:0.9"/><stop offset="1" style="stop-color:rgb(42,99,169);stop-opacity:0.9"/></radialGradient>
        <radialGradient id="_Radial2" cx="0" cy="0" r="1" gradientUnits="userSpaceOnUse" gradientTransform="matrix(142.622,100.29,-100.29,142.622,1004.07,617.083)"><stop offset="0" style="stop-color:white;stop-opacity:0.9"/><stop offset="0.82" style="stop-color:rgb(0,176,200);stop-opacity:0.9"/><stop offset="0.91" style="stop-color:rgb(9,159,193);stop-opacity:0.9"/><stop offset="1" style="stop-color:rgb(42,99,169);stop-opacity:0.9"/></radialGradient>
        <radialGradient id="_Radial3" cx="0" cy="0" r="1" gradientUnits="userSpaceOnUse" gradientTransform="matrix(142.622,100.29,-100.29,142.622,1004.07,617.083)"><stop offset="0" style="stop-color:white;stop-opacity:0.9"/><stop offset="0.73" style="stop-color:rgb(0,176,200);stop-opacity:0.9"/><stop offset="0.87" style="stop-color:rgb(9,159,193);stop-opacity:0.9"/><stop offset="1" style="stop-color:rgb(42,99,169);stop-opacity:0.9"/></radialGradient>
        <radialGradient id="_Radial4" cx="0" cy="0" r="1" gradientUnits="userSpaceOnUse" gradientTransform="matrix(142.622,100.29,-100.29,142.622,1004.07,617.083)"><stop offset="0" style="stop-color:white;stop-opacity:0.9"/><stop offset="0.5" style="stop-color:rgb(0,176,200);stop-opacity:0.9"/><stop offset="0.77" style="stop-color:rgb(9,159,193);stop-opacity:0.9"/><stop offset="1" style="stop-color:rgb(42,99,169);stop-opacity:0.9"/></radialGradient>
        <radialGradient id="_Radial5" cx="0" cy="0" r="1" gradientUnits="userSpaceOnUse" gradientTransform="matrix(142.622,100.29,-100.29,142.622,1004.07,617.083)"><stop offset="0" style="stop-color:white;stop-opacity:0.9"/><stop offset="0.5" style="stop-color:rgb(0,176,200);stop-opacity:0.9"/><stop offset="0.77" style="stop-color:rgb(9,159,193);stop-opacity:0.9"/><stop offset="1" style="stop-color:rgb(42,99,169);stop-opacity:0.9"/></radialGradient>
        <radialGradient id="_Radial6" cx="0" cy="0" r="1" gradientUnits="userSpaceOnUse" gradientTransform="matrix(142.622,100.29,-100.29,142.622,1004.07,617.083)"><stop offset="0" style="stop-color:white;stop-opacity:0.9"/><stop offset="0.5" style="stop-color:rgb(0,176,200);stop-opacity:0.9"/><stop offset="0.77" style="stop-color:rgb(9,159,193);stop-opacity:0.9"/><stop offset="1" style="stop-color:rgb(42,99,169);stop-opacity:0.9"/></radialGradient>
        <radialGradient id="_Radial7" cx="0" cy="0" r="1" gradientUnits="userSpaceOnUse" gradientTransform="matrix(142.622,100.29,-100.29,142.622,1004.07,617.083)"><stop offset="0" style="stop-color:white;stop-opacity:0.9"/><stop offset="0.5" style="stop-color:rgb(0,176,200);stop-opacity:0.9"/><stop offset="0.77" style="stop-color:rgb(9,159,193);stop-opacity:0.9"/><stop offset="1" style="stop-color:rgb(42,99,169);stop-opacity:0.9"/></radialGradient>
        <radialGradient id="_Radial8" cx="0" cy="0" r="1" gradientUnits="userSpaceOnUse" gradientTransform="matrix(142.622,100.29,-100.29,142.622,1004.07,617.083)"><stop offset="0" style="stop-color:rgb(198,234,251);stop-opacity:0.9"/><stop offset="0.5" style="stop-color:rgb(0,176,200);stop-opacity:0.9"/><stop offset="0.77" style="stop-color:rgb(9,159,193);stop-opacity:0.9"/><stop offset="1" style="stop-color:rgb(42,99,169);stop-opacity:0.9"/></radialGradient>
        <radialGradient id="_Radial9" cx="0" cy="0" r="1" gradientUnits="userSpaceOnUse" gradientTransform="matrix(142.622,100.29,-100.29,142.622,1004.07,617.083)"><stop offset="0" style="stop-color:rgb(198,234,251);stop-opacity:0.9"/><stop offset="0.5" style="stop-color:rgb(0,176,200);stop-opacity:0.9"/><stop offset="0.77" style="stop-color:rgb(9,159,193);stop-opacity:0.9"/><stop offset="1" style="stop-color:rgb(42,99,169);stop-opacity:0.9"/></radialGradient>
        <radialGradient id="_Radial10" cx="0" cy="0" r="1" gradientUnits="userSpaceOnUse" gradientTransform="matrix(142.622,100.29,-100.29,142.622,1004.07,617.083)"><stop offset="0" style="stop-color:rgb(198,234,251);stop-opacity:0.9"/><stop offset="0.5" style="stop-color:rgb(0,176,200);stop-opacity:0.9"/><stop offset="0.77" style="stop-color:rgb(9,159,193);stop-opacity:0.9"/><stop offset="1" style="stop-color:rgb(42,99,169);stop-opacity:0.9"/></radialGradient>
        <radialGradient id="_Radial11" cx="0" cy="0" r="1" gradientUnits="userSpaceOnUse" gradientTransform="matrix(142.622,100.29,-100.29,142.622,1004.07,617.083)"><stop offset="0" style="stop-color:rgb(252,215,208);stop-opacity:0.9"/><stop offset="0.5" style="stop-color:rgb(243,117,122);stop-opacity:0.9"/><stop offset="0.77" style="stop-color:rgb(216,100,109);stop-opacity:0.9"/><stop offset="1" style="stop-color:rgb(125,42,66);stop-opacity:0.9"/></radialGradient>
        <radialGradient id="_Radial12" cx="0" cy="0" r="1" gradientUnits="userSpaceOnUse" gradientTransform="matrix(142.622,100.29,-100.29,142.622,1004.07,617.083)"><stop offset="0" style="stop-color:rgb(255,237,86);stop-opacity:0.9"/><stop offset="0.5" style="stop-color:rgb(255,201,78);stop-opacity:0.9"/><stop offset="0.77" style="stop-color:rgb(254,191,78);stop-opacity:0.9"/><stop offset="1" style="stop-color:rgb(249,158,77);stop-opacity:0.9"/></radialGradient>
    </defs>
</svg>
